<svg width="26" height="26" viewBox="0 0 26 26" xmlns="http://www.w3.org/2000/svg">
<path d="M20.5978 19.5169C20.6143 19.5114 20.6307 19.506 20.6471 19.5006C20.6197 19.4924 20.5951 19.487 20.5649 19.4761C20.5786 19.4924 20.5869 19.5033 20.5978 19.5169Z"/>
<path d="M25.5014 14.9682C25.6685 14.8104 25.8247 14.6635 25.9781 14.5193C25.9781 13.7712 25.9781 13.0285 25.9781 12.2858C25.9781 11.9076 26.0493 11.5077 25.948 11.154C25.8521 10.814 25.8439 10.4521 25.685 10.1257C25.611 9.97604 25.5836 9.79376 25.5836 9.62509C25.5836 9.28503 25.4603 8.99393 25.3097 8.69467C25.1727 8.42262 25.1261 8.10704 25.0138 7.72617C24.9782 7.6908 24.8357 7.5983 24.7864 7.47316C24.6138 7.02155 24.3043 6.64884 24.0851 6.22444C23.7126 5.49806 23.1729 4.89955 22.6469 4.29287C22.4278 4.03987 22.1182 3.86303 21.8881 3.61819C21.3895 3.08768 20.817 2.64968 20.2061 2.25793C19.6966 1.93146 19.1815 1.61044 18.6528 1.31663C18.4008 1.17516 18.1104 1.10171 17.8392 0.995605C17.5954 0.900387 17.3626 0.777964 17.1133 0.70723C16.8558 0.633776 16.5873 0.609291 16.3353 0.565763C16.2394 0.500471 16.149 0.440619 16.0641 0.383488L15.9024 0.543999C15.9326 0.595689 15.9627 0.647379 15.938 0.699068C16.1462 0.704509 16.3161 0.666422 16.3928 0.927592C16.2284 0.854138 16.1024 0.797007 15.938 0.699068C15.886 0.718112 15.8148 0.671863 15.7353 0.598409C15.6203 0.489589 15.497 0.364445 15.3545 0.323637C15.0258 0.225698 14.6834 0.171288 14.3464 0.108716C14.1766 0.0760696 13.9821 0.176729 13.8396 0.00805664C13.5082 0.00805664 13.1767 0.0134977 12.8452 0.0134977C12.7028 0.231139 12.4562 0.051585 12.259 0.168567C12.0864 0.269226 11.7796 0.135921 11.5878 0.222978C11.3741 0.320916 11.1742 0.312755 10.9742 0.296432C10.7222 0.277388 10.5331 0.424296 10.2756 0.437899C10.377 0.60385 10.451 0.728994 10.5249 0.854138L10.4701 0.894946C10.3304 0.805169 10.1907 0.715392 10.0428 0.617453H9.43189L9.37436 0.913989C9.17986 0.870461 9.01549 0.701789 8.82099 0.840535L8.78812 0.995605H8.27584L7.91698 1.23229C7.99916 1.33567 8.06765 1.42273 8.14983 1.52067C7.94437 1.62677 7.76631 1.71382 7.59098 1.8036C7.49784 1.7247 7.41292 1.65125 7.34169 1.58868C7.10336 1.63493 6.88421 1.67846 6.62944 1.72742C6.45138 1.90426 6.24044 2.11374 6.02403 2.32866C5.98567 2.5599 6.05416 2.76122 6.23496 2.95438V3.45767C6.29797 3.474 6.3418 3.48488 6.39659 3.49848V3.88752C6.11717 3.64539 5.86788 3.41687 5.91719 3.02783C5.772 2.85372 5.80487 2.54902 5.51449 2.48373C5.41313 2.58167 5.31177 2.67689 5.22411 2.7585C5.29534 2.93534 5.36382 3.08768 5.41861 3.24819C5.42957 3.28356 5.39669 3.33525 5.38574 3.37606H5.02961C4.99126 3.32437 4.93647 3.24819 4.87894 3.1693C4.70636 3.29716 4.55569 3.40871 4.43789 3.49576C4.35571 3.8984 4.73923 4.19494 4.55569 4.63566L4.216 4.24118C4.14203 4.31736 4.07081 4.39081 3.97767 4.48603C4.17217 4.6275 4.33653 4.74448 4.4872 4.8533L4.82141 4.88323V5.21513L4.75841 5.15528L4.68718 5.37564L4.63787 5.32939L4.59404 4.91587C4.42967 5.22601 3.99136 5.11719 3.9174 5.50078L4.15847 5.63681C4.06807 5.74563 3.99136 5.84085 3.91466 5.93607C3.96123 6.02856 4.00232 6.11018 4.05437 6.219C3.92288 6.24621 3.82152 6.26525 3.71742 6.28701C3.85713 6.76855 4.03519 7.20111 4.42967 7.4922V8.19954L4.49268 8.14241L4.56938 8.36277C4.82689 8.28388 4.81593 8.10704 4.84881 7.93565L5.21863 7.95469C5.16932 8.19954 5.12549 8.41446 5.08166 8.62938H4.14751C4.07081 8.7246 3.97767 8.83886 3.89822 8.9368C3.78317 8.92864 3.70646 8.92592 3.61058 8.92048C3.87083 8.6321 4.10916 8.37093 4.34201 8.1152C4.28722 8.05263 4.22422 8.01182 4.22695 7.97918C4.25161 7.69896 4.09272 7.51397 3.94205 7.29905C3.71194 6.97531 3.5421 6.61348 3.34212 6.25981C3.08735 6.30062 3.02708 6.34414 3.02708 6.52098C3.12022 6.58083 3.22432 6.64884 3.30376 6.70053C3.3339 6.85288 3.35855 6.98619 3.38321 7.10589C3.3202 7.18479 3.24624 7.27184 3.16679 7.36978C3.0216 7.33986 2.88737 7.31265 2.77505 7.28817C2.67643 7.31537 2.58877 7.33713 2.50659 7.3589C1.99979 6.88281 1.84912 6.842 1.63271 7.10317V7.53029C1.76968 7.6908 1.92035 7.87036 2.07102 8.04991L2.28195 7.84043C2.33948 7.90844 2.39701 7.97646 2.44906 8.03903C2.35592 8.16417 2.27922 8.26211 2.19703 8.37637C2.33674 8.50696 2.4655 8.61578 2.57507 8.7382C2.61343 8.78173 2.60521 8.86335 2.61891 8.93136C2.35866 8.95312 2.36414 8.7382 2.23538 8.6049C2.13676 8.65387 2.02993 8.70828 1.92035 8.76269C2.09019 8.96128 2.06554 9.15444 1.98062 9.32856C1.86556 9.5598 1.9587 9.75568 2.03541 9.95427C1.73681 10.3678 2.13402 10.7949 2.00527 11.222H1.47382C1.41629 11.2982 1.32589 11.4125 1.24097 11.524C0.882102 11.2465 0.569806 11.6138 0.262989 11.5295C0.216419 11.7689 0.16437 11.9675 0.139715 12.1688C0.106841 12.4517 0.199982 12.7482 0.0410949 13.023C0.010961 13.072 0.00822161 13.1754 0.0410949 13.2162C0.183546 13.3876 0.131496 13.5862 0.134236 13.7739C0.134236 13.997 0.224637 14.152 0.435574 14.2391V14.4377C0.369827 14.5057 0.304081 14.5764 0.219158 14.6635C0.25751 15.0825 0.298602 15.515 0.336954 15.9476C0.339694 15.9802 0.336954 16.0156 0.350651 16.0401C0.627334 16.5434 0.610898 17.15 0.934151 17.6343C1.12043 18.4069 1.52587 19.0816 1.93952 19.7481C2.17512 20.129 2.33126 20.5915 2.8408 20.7466C2.78601 21.0649 2.92572 21.2852 3.12844 21.4838C3.81604 22.1558 4.47898 22.8495 5.2652 23.4154C5.78569 23.7908 6.31988 24.1363 6.88969 24.4274C7.45127 24.7158 8.07039 24.8736 8.61553 25.1973C8.6621 25.2245 8.73881 25.2001 8.78538 25.2001C8.90317 24.9688 8.73059 24.8818 8.62923 24.7593C8.53883 24.6505 8.47856 24.5145 8.3772 24.4193C8.26762 24.3159 8.12517 24.2452 8.0156 24.1744L8.03203 23.916C8.12243 23.916 8.21558 23.8888 8.27584 23.9214C8.45665 24.0112 8.61827 24.1336 8.79634 24.2288C9.04836 24.3649 9.28122 24.5879 9.62913 24.4655V24.1146H10.2181C10.429 24.2044 10.5824 24.2696 10.7934 24.3594L11.0043 24.5335V24.8872H10.6153C10.4236 25.0178 10.2784 25.1157 10.1277 25.2191V25.5755L10.4016 25.736C10.5057 25.6979 10.5852 25.668 10.6455 25.6462C10.5797 25.5075 10.5414 25.4259 10.4811 25.3034C10.5989 25.298 10.6756 25.2953 10.7578 25.2898C10.9358 25.4884 11.0838 25.7469 11.3057 25.8693C11.5248 25.9917 11.8152 26.0625 12.1028 25.9536C12.1439 25.8992 12.1905 25.8394 12.248 25.7632C11.9823 25.5428 11.7358 25.3415 11.5029 25.1484C11.5193 25.0423 11.5276 24.9688 11.5495 24.8301C11.7714 25.045 11.9439 25.2137 12.1275 25.3905L12.2946 25.2926C12.4261 25.3361 12.5411 25.3769 12.6452 25.4123C12.8589 25.1973 12.9685 24.9824 12.8945 24.7267C12.6507 24.5988 12.4316 24.4846 12.2179 24.373V24.0683C12.0974 23.9024 11.9522 23.7881 11.7412 23.7772C11.6837 23.7745 11.6289 23.7283 11.596 23.7119C11.6837 23.6004 11.7248 23.5487 11.7686 23.4916C11.8563 23.5133 11.933 23.5297 12.007 23.5487C12.0727 23.565 12.1384 23.5814 12.2809 23.6194C12.1275 23.3746 12.0261 23.2032 11.9111 23.0373C11.7905 22.8659 11.659 22.7053 11.4974 22.4931C11.8042 22.553 11.8892 22.8033 12.0727 22.9039L12.3138 22.9284V23.7419C12.4946 24.052 12.6809 24.3404 13.0973 24.286V23.7201L12.6699 23.6766C12.8178 23.5569 12.9247 23.4644 13.037 23.3746C13.4835 23.9649 13.867 24.5335 14.467 24.5988L14.6368 24.4383C14.5546 24.2832 14.4861 24.1472 14.4122 24.0112C14.4122 23.8806 14.3985 23.7473 14.4149 23.6167C14.4314 23.4861 14.4779 23.361 14.5053 23.2576C14.3738 23.1053 14.319 23.3692 14.1958 23.2576C14.1382 23.2059 14.0122 23.2032 13.9191 23.2168C13.8232 23.2277 13.7328 23.2821 13.6205 23.3256V22.8849C13.7081 22.7625 13.7712 22.6754 13.8396 22.5775C13.7438 22.5312 13.6753 22.5013 13.5904 22.4605V22.1422L13.3438 22.0579C13.5849 21.881 13.7383 21.6906 13.7684 21.4321C13.8177 21.6416 13.8698 21.8538 13.9246 22.0905C14.1574 22.2592 14.2999 22.5176 14.341 22.8087L15.1272 23.3256C15.1573 23.1814 15.1628 23.0672 15.2094 22.9774C15.2505 22.9012 15.3409 22.8523 15.4176 22.7842C15.5326 22.8958 15.6258 22.9856 15.7107 23.0672L15.686 23.3637C15.486 23.4236 15.3381 23.497 15.1874 23.5025C15.0286 23.5106 14.8669 23.4562 14.7053 23.429L14.645 23.5161C14.8341 23.6521 14.9327 23.8779 15.2066 23.9513V24.5199C15.3162 24.6804 15.3956 24.7947 15.486 24.928C15.5737 24.8872 15.6997 24.8682 15.7326 24.8029C15.8668 24.5335 15.9545 24.2452 15.8805 23.9377C15.7463 23.8861 15.5956 23.8534 15.5956 23.6548L15.7655 23.5079C16.2147 23.5297 16.6914 23.5269 17.1187 23.2467C17.179 23.2059 17.3105 23.2168 17.3817 23.2549C17.5872 23.3664 17.7516 23.3392 17.8721 23.1842C17.7954 22.9502 17.7214 22.7326 17.6694 22.5802C17.4886 22.4877 17.3543 22.417 17.2201 22.3462L17.1379 22.4197L17.19 22.7978H16.927C16.9599 22.6401 16.99 22.4931 17.0229 22.349L17.0777 22.4088L17.2146 22.1313L17.6392 22.3462C17.7981 22.2646 17.9488 22.1857 18.0775 22.1177C18.0967 21.9654 18.1077 21.8484 18.1214 21.745C18.2145 21.7831 18.283 21.8103 18.3597 21.8402C18.3835 21.5537 18.4583 21.3569 18.5843 21.2499V22.0551C18.5022 22.164 18.4364 22.251 18.3679 22.3408C18.5624 22.5448 18.798 22.5856 19.0281 22.6074C19.1131 22.6156 19.2062 22.5312 19.2856 22.4959C19.2336 22.4061 19.2035 22.3517 19.1733 22.3C19.3158 22.1993 19.4418 22.1123 19.587 22.0116H20.1486C20.1814 21.979 20.2225 21.9572 20.2253 21.9327C20.2636 21.7341 20.291 21.5328 20.3266 21.3206C20.4115 21.4702 20.4883 21.609 20.554 21.7287C20.7074 21.5845 20.8362 21.4621 20.9814 21.3233V21.1302C20.88 21.0023 20.8088 20.9125 20.7211 20.8037C20.5978 20.8418 20.48 20.8962 20.3568 20.9044C20.2335 20.9125 20.0719 21.0377 20.0143 20.8309H19.7404C19.6692 20.7439 19.5103 20.684 19.6664 20.4881C19.7897 20.5997 19.902 20.7003 20.0171 20.8309C20.3157 20.684 20.3458 20.382 20.3951 20.0855C20.3979 20.0664 20.4444 20.0528 20.4828 20.0311L20.606 20.0936C20.5595 20.197 20.5184 20.2922 20.4663 20.4174H20.9814V19.9739C20.9183 19.9195 20.8088 19.8243 20.691 19.7209C20.691 19.6801 20.6855 19.623 20.6033 19.5251C20.5869 19.5305 20.5677 19.5359 20.5513 19.5387C20.5376 19.5387 20.5184 19.5033 20.5704 19.4843C20.5704 19.4625 20.6307 19.4788 20.691 19.4951C20.6773 19.5006 20.6663 19.5033 20.6526 19.5087C20.8088 19.5523 20.8937 19.5631 20.9759 19.5767C21.0663 19.5931 21.206 19.6611 21.2389 19.6257C21.3676 19.4897 21.5183 19.555 21.658 19.5441C21.8004 19.5332 21.9456 19.5441 22.1593 19.5441C22.0032 19.2775 21.8717 19.117 21.6005 19.1387V18.679C21.7183 18.6001 21.8361 18.5212 21.9511 18.4396C21.973 18.4233 21.9785 18.3852 22.0004 18.3335C21.9347 18.2573 21.8635 18.1757 21.7676 18.0669V17.4656H21.5101C21.4553 17.6561 21.395 17.8601 21.3347 18.0777C21.143 18.0179 21.0581 17.9064 21.0909 17.7132C21.2087 17.5962 21.3238 17.4792 21.3676 17.4384C21.5703 17.3514 21.6854 17.3051 21.7895 17.2589C21.7895 17.1065 21.7758 16.9923 21.795 16.878C21.8114 16.7828 21.8635 16.693 21.8963 16.6032C21.5703 16.4699 21.5292 16.742 21.3868 16.9515L21.143 16.5461C21.1868 16.5107 21.3019 16.4237 21.384 16.3584C21.395 16.2305 21.4005 16.1516 21.4087 16.0537C21.8361 16.1679 22.2689 16.1951 22.5401 16.6604C22.4086 16.6658 22.3292 16.6712 22.2935 16.6712C22.1703 16.7692 22.0716 16.8508 22.0059 16.9025V17.8275C22.0771 17.8955 22.1347 17.9526 22.2114 18.0261V18.8259C22.3127 18.8694 22.3894 18.8993 22.4442 18.9238C22.7866 18.7524 22.4606 18.5538 22.5017 18.3172C22.5538 18.2274 22.6332 18.0941 22.7072 17.9716H22.9702C22.9866 18.0723 23.0003 18.1621 23.0195 18.2845C23.2085 18.1974 23.3729 18.1186 23.5345 18.0424C23.592 18.192 23.6359 18.3226 23.6907 18.4477C23.7948 18.6817 23.7948 18.6817 23.6907 18.9619C23.6824 18.981 23.7181 19.0163 23.7454 19.0653L23.9427 18.9619L24.0769 19.1687C24.2002 19.1034 24.3207 19.0435 24.4495 18.9782C24.3262 18.8422 24.2522 18.7606 24.1865 18.6899C24.1865 18.5049 24.1865 18.3389 24.1865 18.1757C24.1865 18.0016 24.1783 17.8302 24.1728 17.6533C24.0084 17.6969 23.8879 17.7567 23.7701 17.7513C23.6523 17.7458 23.54 17.6724 23.3236 17.5881C23.2386 17.4983 23.0798 17.3323 22.9236 17.1691L22.6551 17.1446C22.7373 17.0684 22.7839 17.0222 22.814 16.995C23.1893 17.0929 23.4605 17.4031 23.8934 17.4901V17.0086C24.0413 17.0739 24.1372 17.1228 24.2358 17.1555C24.2742 17.1691 24.3262 17.15 24.3865 17.1419V16.8453C24.5207 16.6604 24.6275 16.5134 24.8001 16.274C24.7399 16.5651 24.7042 16.742 24.6741 16.8916C24.8412 17.0984 24.9782 17.2752 25.1261 17.4439C25.1453 17.4656 25.2138 17.4466 25.2905 17.4466C25.2549 17.3133 25.2247 17.1936 25.1836 17.0467H25.4658C25.5151 16.7529 25.559 16.4781 25.6137 16.1543C25.2987 16.1761 25.0412 16.1924 24.7727 16.2115C24.8823 15.9775 24.9891 15.7381 25.1097 15.5096C25.1453 15.4388 25.2247 15.3899 25.2658 15.3491C25.1289 15.1314 25.2083 14.9111 25.1836 14.7043C25.4795 14.6254 25.3535 14.9709 25.5069 14.9791L25.5014 14.9682ZM2.74218 8.03359C2.79149 7.94381 2.82984 7.87308 2.88463 7.7697C3.03804 7.92205 3.20241 7.99278 3.21884 8.22946C3.02434 8.15057 2.86272 8.08256 2.74218 8.03359ZM16.5024 0.933033L16.5325 0.903107L16.601 0.984723L16.5818 1.00377C16.8147 0.952077 16.8558 1.1534 17.0283 1.2595C16.7243 1.33295 16.7215 1.0745 16.4558 1.02009C16.5544 0.982002 16.527 0.957518 16.4996 0.935754L16.5024 0.933033ZM13.8698 13.763C13.6972 13.9643 13.6945 14.182 13.6972 14.4078C13.7027 15.613 13.6972 16.8181 13.7027 18.0233C13.7027 18.1784 13.6342 18.3498 13.7876 18.4858C13.8122 18.5076 13.815 18.5865 13.7958 18.6246C13.5849 19.0626 13.7712 19.5251 13.6698 20.0039C13.4287 20.1209 13.1575 20.2215 12.8534 20.0392C12.7795 19.9957 12.6589 20.0256 12.5603 20.0256C12.1494 20.0256 11.7358 20.0256 11.3084 20.0256V13.7848H9.21547V11.4179H11.2837C11.292 11.2764 11.3002 11.1513 11.3029 11.0262C11.3029 10.531 11.292 10.0359 11.3084 9.54076C11.3221 9.14084 11.3577 8.74092 11.4125 8.34373C11.4317 8.19954 11.533 8.06351 11.6043 7.93021C11.9768 7.24192 12.5466 6.83656 13.3191 6.62708C14.3026 6.36047 15.2861 6.48017 16.286 6.43664V8.51784C15.6011 8.51512 14.908 8.49608 14.1739 8.78717C14.0533 8.92048 13.8725 9.12452 13.7136 9.30679V11.3526C14.0725 11.5431 14.4478 11.4941 14.8176 11.4968C15.2641 11.4995 15.7134 11.4968 16.2093 11.4968C16.0969 12.2531 15.9901 12.9958 15.8778 13.7576H13.8753L13.8698 13.763ZM16.4257 22.9992C16.3709 22.9203 16.3051 22.8305 16.2312 22.7244C16.3919 22.6138 16.5526 22.6491 16.7133 22.8305C16.6202 22.8849 16.5352 22.9366 16.4257 23.0019V22.9992ZM17.1708 21.9001L17.0503 21.8402C16.9078 21.9028 16.7571 21.9681 16.5955 22.0415C16.4996 21.9599 16.4174 21.8919 16.338 21.8239C16.2997 21.8565 16.264 21.8865 16.2065 21.9354C16.1462 21.8919 16.0832 21.8457 16.0148 21.7967V21.3587L16.3161 21.745C16.4777 21.5845 16.6065 21.4566 16.7434 21.3206C16.927 21.5029 17.0859 21.6607 17.2448 21.8185L17.1708 21.9028V21.9001Z" />
</svg>
