<svg width="26" height="26" viewBox="0 0 26 26" xmlns="http://www.w3.org/2000/svg">
<path d="M0 13.5197C0 13.1732 0 12.8268 0 12.4803C0.0390642 12.4308 0.117193 12.3758 0.111612 12.3319C0.0362739 11.7819 0.214853 11.2513 0.251127 10.7096C0.267869 10.4676 0.315304 10.2037 0.393432 9.96447C0.638978 9.20284 0.912427 8.4467 1.17751 7.69057C1.18588 7.66857 1.22773 7.66032 1.22215 7.66032L1.48165 7.75381C1.35329 7.53934 1.37004 7.35237 1.4677 7.1654C1.59326 6.92893 1.71882 6.69247 1.84718 6.45601C2.06482 6.05732 2.39129 5.71637 2.60614 5.32043C2.78751 4.98498 3.12792 4.83376 3.33441 4.5368C3.41532 4.42132 3.6525 4.41307 3.87851 4.33883V4.96574C4.22079 4.86309 4.46076 4.74302 4.59841 4.60554C4.40309 4.63029 4.26079 4.64679 4.11848 4.66878C4.07942 4.67428 4.04593 4.69903 3.99292 4.72102V4.35808L4.24962 4.00063L3.99292 3.84941L4.55935 3.29124L4.78536 3.36273L4.8328 2.97504L6.52093 1.83122L6.60743 2.06218H6.93668L6.85018 1.6525C6.98691 1.57826 7.14316 1.49027 7.305 1.41053C7.4501 1.33904 7.59798 1.22081 7.74587 1.22081C7.9105 1.22081 8.0528 1.13558 8.21185 1.15207L8.38764 1.49852L8.50762 1.38029L8.61923 1.61675L8.76433 1.47377L8.68062 1.15207C8.6276 0.90736 8.86478 0.841371 8.93732 0.739636L9.82185 0.505922L9.98648 0.78088L10.1427 0.467428L10.8766 0.255711L11.0803 0.695643L11.6411 0.514171L11.2644 0.277707L11.6467 0.0934856L11.789 0.222716L11.9034 0.120981L12.0708 0.236464C12.2494 0.167724 12.4029 -0.0577411 12.5619 0.230964C12.4671 0.354695 12.3694 0.470178 12.2689 0.58291C12.2606 0.574662 12.2885 0.602157 12.3164 0.629653L12.1769 0.78088L12.7461 0.830372L12.8214 0.959602L13.0446 0.879865L12.4615 0.530668C12.5005 0.431684 12.5396 0.335448 12.5647 0.236464C12.6903 0.137479 12.8382 0.101734 13.0028 0.109983C13.0474 0.109983 13.0949 0.0384941 13.1395 0C13.2958 0 13.452 0 13.6083 0L13.7645 0.228215C14.3282 -0.0769882 14.8779 0.26121 15.5448 0.228215L15.6173 0.398689L16.047 0.360195L15.9493 0.706641L16.1614 0.670897L16.2423 0.434433C18.5359 0.893613 20.4417 2.04019 22.1522 3.52496C22.1801 3.65419 22.2415 3.76417 22.2833 3.87965C22.2973 3.92365 22.2666 3.98139 22.247 4.07212C22.1605 4.03088 22.102 3.99514 22.0378 3.97314C21.9764 3.95114 21.9122 3.94014 21.809 3.91265L21.9262 4.13811C21.8536 4.14636 21.7978 4.14911 21.742 4.15736C21.689 4.16561 21.636 4.17936 21.583 4.19311C21.6471 4.37458 21.915 4.14911 22.102 4.60829C22.328 4.63029 22.2024 4.64129 22.0964 4.60004C22.0071 4.5643 21.9485 4.46256 21.9596 4.47631L21.5634 4.58355C21.8955 4.69903 22.0796 4.76227 22.102 4.60829C22.1131 4.28384 22.2973 4.2096 22.5093 4.31409L22.3698 4.55055L22.7186 4.71278L22.434 4.875L22.5177 5.23245L22.2582 5.03723C22.1773 5.14171 22.1187 5.22695 22.0489 5.30668C21.982 5.37817 21.9038 5.44141 21.8118 5.5239L22.194 5.57889L21.6443 5.8236L21.915 5.93359L21.8341 6.07657L21.929 6.2058L21.6862 6.28553L21.7308 6.4945L22.194 6.28828L22.0266 5.95833L22.3196 5.69712L22.6349 5.96933C22.6349 6.04632 22.6349 6.14256 22.6265 6.24704C22.5261 6.25529 22.4145 6.25529 22.2889 6.25529C22.3977 6.41201 22.4926 6.55224 22.5875 6.68972C22.6433 6.63748 22.6963 6.58249 22.7326 6.54674C22.6907 6.43951 22.6516 6.34327 22.6265 6.24704C22.7298 6.28278 22.8218 6.32953 22.9195 6.37627L23.0451 6.23054L23.2767 6.70072H23.4552L23.2125 6.89319L23.2711 7.25338L23.6645 6.89869L23.5724 6.70072L23.924 6.8162H24.0412V7.24239L23.8208 7.31388L24.0412 7.74006H23.7985C23.6478 7.89129 23.5529 7.99027 23.4552 8.07826C23.3436 8.07001 23.2348 8.07001 23.1316 8.07001L23.0228 7.74281L22.9642 8.35871L22.6656 8.51544L23.1874 8.70791L23.0228 8.52919C22.9865 8.17449 23.4664 8.47695 23.458 8.08101C23.6059 8.08926 23.7566 8.08926 23.8822 8.08926C24.0384 8.36421 23.7985 8.47145 23.6952 8.61168L23.9296 8.84264L23.6924 8.94987V9.1286L23.5222 9.34306L23.2376 9.4063L23.2543 9.44755L23.4246 9.50529L23.3408 9.82149V9.93697C23.3632 10.1789 23.6227 9.95622 23.6952 10.1157L23.4552 10.2202L23.592 10.3659L23.2264 10.4346V10.5721C23.3408 10.7481 23.6171 10.4786 23.6952 10.7453V11.5592L23.4776 11.4382C23.1148 11.5455 22.8888 11.8259 22.6433 12.0789C22.66 12.0954 22.6712 12.1146 22.6879 12.1201C22.7409 12.1366 22.7939 12.1449 22.8274 12.1531L23.006 13.154H23.3297L23.3576 12.8983L23.7706 12.6206C23.9547 12.7855 24.1779 12.6811 24.3788 12.714C24.4263 12.7223 24.4709 12.7443 24.51 12.758L24.2226 13.0687L24.0552 12.725V13.2997L23.7929 13.2557L23.9129 13.1265L23.7622 12.8378L23.5027 13.1375L23.7371 13.4564L23.3157 13.7286V14.3143L23.1204 14.3555V14.5288L23.5083 14.6195L23.1985 14.7295L23.6757 15.1034L23.5222 15.2547L23.4022 15.1474C23.232 15.3454 22.9976 15.2079 22.8163 15.2629L22.6405 15.4251L22.78 15.5791L22.5456 15.5984L22.5093 15.3014L22.2136 15.1557C22.0294 15.3371 21.9513 15.4416 21.9792 15.4691C22.0434 15.4884 22.1075 15.5104 22.141 15.5214L22.0434 15.8816L22.4145 15.7303C22.3866 16.1263 21.9206 16.074 21.8313 16.3737L22.0155 16.4397L21.929 16.8274C22.2415 16.9429 22.5847 16.9154 22.7912 17.2096L22.6488 17.4131L22.8442 17.4846L22.7967 17.8942L23.0646 17.9822L22.6126 18.3507L22.7409 18.5459L22.4396 18.9556C22.6265 18.8951 22.7186 18.8676 22.8079 18.8401C22.9028 18.8099 22.9976 18.7824 23.0953 18.7521L22.9753 19.3818C23.1232 19.467 23.2348 19.5302 23.3464 19.5935C23.3464 19.6897 23.3464 19.786 23.3464 19.8822C23.3604 19.9729 23.2934 20.0994 23.472 20.1187C23.5501 20.1269 23.6227 20.1901 23.698 20.2286L23.8068 20.4101L23.6366 20.5778L23.5222 20.3359L23.3241 20.3799L23.4413 20.6631L23.2488 20.7291V21.1333L23.3994 20.8006L23.6952 20.8363L23.0283 21.4797L23.112 21.5567L22.833 21.8316L22.3391 21.8921L22.713 22.0324C22.3949 22.0434 22.3977 22.2908 22.2526 22.4091C22.074 22.5548 21.929 22.7418 21.7504 22.8902C21.6025 23.014 21.4323 23.1074 21.2788 23.2092L21.1393 23.1102L21.1058 23.3934L19.906 24.166L19.5293 24.0313L19.4177 24.2595L19.1861 23.9268L19.1108 23.9571L19.2531 24.584C18.9182 24.716 18.589 24.8177 18.2848 24.9689C17.6682 25.2796 17.0013 25.4831 16.3456 25.6261C15.6982 25.769 15.0313 25.945 14.3449 25.8928C14.2528 25.8845 14.0994 25.8103 14.0771 26.0028H12.3192C12.2689 25.9643 12.2159 25.89 12.1685 25.8928C11.5211 25.9313 10.9017 25.769 10.2767 25.6536C9.79395 25.5628 9.30564 25.4391 8.8592 25.2714C8.34299 25.0761 7.79609 24.9249 7.31895 24.6197C7.0762 24.4657 6.81391 24.3393 6.55999 24.199C5.81777 23.7811 5.1202 23.2972 4.4868 22.728C4.08221 22.3651 3.69994 21.9801 3.32883 21.5869C3.06096 21.3037 2.81541 20.9958 2.5894 20.6796C2.19038 20.1214 1.82206 19.5495 1.51513 18.9308C1.31702 18.5322 1.0938 18.1417 0.948701 17.7183C0.703155 17.0061 0.3739 16.3132 0.351578 15.5406C0.133934 15.3564 0.332045 15.0842 0.228804 14.9C0.0948701 14.6635 0.133934 14.4298 0.125563 14.1933C0.117193 14.0008 0.128354 13.8084 0.119983 13.6159C0.119983 13.5829 0.0474351 13.5554 0.00837089 13.5252L0 13.5197ZM22.1633 8.08926L22.3894 7.90778C22.3196 7.87479 22.2275 7.85004 22.1661 7.79505C22.1159 7.75106 22.0992 7.66857 22.0294 7.52834L21.8536 7.81705L21.929 8.08651C21.8787 8.125 21.8173 8.15525 21.7811 8.20474C21.7392 8.26248 21.7197 8.33672 21.6639 8.46595L22.3531 8.23498L22.1661 8.08651L22.1633 8.08926ZM18.2179 6.90969C17.9807 6.80795 17.7184 6.68147 17.4115 6.70072C17.2161 6.71447 17.0208 6.70072 16.8255 6.70072C16.6302 6.70072 16.4349 6.71447 16.2395 6.69797C16.0554 6.68147 15.8768 6.73921 15.6787 6.63748C15.5531 6.57149 15.3383 6.69797 15.1653 6.69797C14.1496 6.70622 13.1339 6.70347 12.1183 6.69797C11.9481 6.69797 11.7778 6.66223 11.6048 6.64298C11.4904 6.87394 11.3816 6.522 11.2282 6.64298C11.1305 6.71997 10.938 6.69522 10.7873 6.69522C10.1623 6.70072 9.53724 6.69522 8.91221 6.70072C8.78386 6.70072 8.65829 6.73097 8.52994 6.76121C8.18394 6.84645 7.94119 7.04167 7.6789 7.25888C7.305 7.56959 6.97575 7.98477 6.86692 8.41096L6.72183 8.46045C6.75252 8.60068 6.7888 8.70241 6.79438 8.8069C6.80554 9.03786 6.81391 9.26882 6.79438 9.49979C6.77484 9.69776 6.89762 9.92322 6.69393 10.0937C6.86692 10.2862 6.79438 10.5171 6.79438 10.7343C6.79996 12.8708 6.79717 15.0072 6.79438 17.1436C6.79438 17.5423 6.93668 17.8805 7.15153 18.2132C7.32732 18.4854 7.55613 18.6696 7.80446 18.8648C8.15883 19.1426 8.53273 19.2938 8.97639 19.2938C11.789 19.2938 14.6016 19.2938 17.4143 19.2938C17.8579 19.2938 18.2374 19.1398 18.5778 18.8484C18.7703 18.6834 18.9712 18.5486 19.1135 18.3259C19.214 18.1692 19.4037 18.0675 19.5377 17.9547C19.5153 17.8778 19.4428 17.7678 19.4707 17.71C19.6102 17.4433 19.5767 17.1656 19.5795 16.8879C19.5795 16.6377 19.5795 16.3875 19.5795 16.1373V15.3289C19.5795 15.0787 19.56 14.8257 19.5851 14.5783C19.613 14.3225 19.4595 14.0421 19.6883 13.8139C19.4763 13.6077 19.6102 13.3492 19.5823 13.1127C19.5656 12.9615 19.5795 12.8048 19.5795 12.6508C19.5795 12.5161 19.5377 12.3621 19.5907 12.2521C19.6576 12.1091 19.6325 12.0129 19.5907 11.8782C19.546 11.7379 19.5795 11.573 19.5795 11.419C19.5795 10.5529 19.5823 9.68676 19.5767 8.82064C19.5767 8.67767 19.546 8.53744 19.507 8.39171C19.4261 8.08376 19.2419 7.84179 19.0773 7.57508L19.3451 7.45135C18.9238 7.51185 18.7201 7.15715 18.4076 7.00867L18.575 6.75571L18.2179 6.90419V6.90969ZM19.786 19.7227C19.666 19.6952 19.5405 19.6347 19.4344 19.6567C19.3451 19.6732 19.2782 19.7887 19.1442 19.9097L19.9004 20.3304L19.839 20.1956L20.1571 20.1709L19.8139 20.0582L20.1432 19.8464L19.8669 19.5055L19.7888 19.7227H19.786ZM12.6484 1.6085C12.4698 1.48477 12.2829 1.53701 12.3024 1.33354C12.3136 1.22631 12.0039 1.3198 12.0764 1.09708L11.8978 1.06409L11.9592 1.48752L11.6048 1.51502L11.6272 1.92745C11.7751 1.61125 11.9285 1.78997 12.0597 1.82022L12.1099 1.60575H12.6456L12.6484 1.6085ZM20.492 23.1652C20.6761 23.2614 20.7263 23.0964 20.7459 23.0387C20.8128 22.8572 20.7821 22.6125 20.8938 22.4805C21.0584 22.2881 20.8491 22.2798 20.8184 22.2028L20.4836 22.3871L20.6203 22.5933L20.4975 22.794L20.6259 22.9315L20.4892 23.1679L20.492 23.1652ZM22.1215 7.41286L22.501 7.23689L22.4061 7.07466L22.7939 7.01417L22.3698 6.8052L22.102 7.03617L21.9429 6.92069C21.9429 7.05816 21.9429 7.14615 21.9429 7.23689L22.1215 7.41286ZM19.9953 16.7614C20.1739 16.4975 20.2185 16.239 20.1376 15.975L19.9925 15.8321L19.8027 16.2033L19.9144 16.338L19.7916 16.5525L19.9925 16.7614H19.9953ZM22.6488 9.05161L22.8079 8.98837L22.6795 8.7904C22.5791 8.91688 22.3559 8.90863 22.3587 9.10385L22.1661 9.01586V9.21658L22.5958 9.25508L22.6712 9.46679L22.8637 9.45305L22.6488 9.04611V9.05161ZM13.9236 1.06959L13.5023 0.423435C13.4046 0.646151 13.3237 0.819374 13.2539 1.00085C13.2372 1.04209 13.2734 1.10258 13.2874 1.16032L13.5748 0.90736L13.9236 1.06959ZM4.92488 5.84835C5.10625 5.90059 5.29041 5.95833 5.48015 6.00508C5.52479 6.01607 5.5806 5.98033 5.58618 5.98033L5.33505 5.65038L4.92767 5.68338V5.84835H4.92488ZM22.7688 7.66857L23.3939 7.45685L22.7688 7.26988V7.66857ZM5.86242 7.4981V7.32762L5.30436 7.1599L5.26529 7.34687C5.39644 7.40186 5.52479 7.46235 5.65872 7.5091C5.70616 7.52559 5.76755 7.50635 5.86242 7.4981ZM20.7431 18.6559C20.771 18.5789 20.8268 18.4332 20.8686 18.2819C20.8798 18.2434 20.8407 18.1912 20.8658 18.2627L20.3887 18.4689L20.7431 18.6559ZM19.8948 18.3947H19.5851L19.9897 18.9501L20.0622 18.9143L19.8948 18.3947ZM9.48701 1.98519H9.04057V2.17492H9.48701V1.98519ZM10.6813 1.52876C10.8738 1.44903 11.0663 1.57276 11.2477 1.41603C11.0412 1.46552 10.924 1.13558 10.6813 1.3198V1.53151V1.52876ZM4.70723 3.54146L4.26079 3.94014L4.83559 3.90715L4.70444 3.75867C4.73793 3.70918 4.76583 3.66794 4.79094 3.62394C4.79094 3.61844 4.76583 3.59645 4.71002 3.5442L4.70723 3.54146ZM22.8051 14.5563C22.5903 14.8422 22.5707 14.955 22.7577 15.0402L22.9725 14.7212L22.8051 14.5563ZM21.3374 22.475C21.6192 22.7033 21.5439 22.1671 21.7699 22.2853L21.8397 22.0076C21.6248 22.2138 21.343 22.1891 21.3374 22.475ZM19.3228 22.5988L19.8697 22.9232L19.6632 22.4283L19.3228 22.6015V22.5988Z" />
<path d="M23.924 10.6326C23.8961 10.4841 23.8821 10.0414 23.9128 9.93967H23.3352V9.82419C23.5696 9.89842 23.6254 9.62072 23.8737 9.57397L23.9714 9.80769L24.0384 9.75545C24.0384 9.90392 24.0328 10.0524 24.0439 10.2009C24.0439 10.2339 24.1165 10.2586 24.1556 10.2889C24.1751 10.4676 24.1053 10.5913 23.9212 10.6353L23.924 10.6326Z" />
<path d="M23.9241 6.81892L24.0692 6.37074L24.2533 6.76668L24.3649 6.70069L24.4263 6.13428L24.5965 6.67869C24.471 6.89316 24.2394 6.79968 24.0413 6.81617H23.9241V6.81892Z" />
<path d="M23.3381 19.8767H23.7455C23.8459 20.0087 24.0552 20.0747 24.0412 20.3056L23.6897 20.2232C23.6143 20.1847 23.5418 20.1214 23.4636 20.1132C23.2823 20.0939 23.352 19.9702 23.3381 19.8767Z" />
<path d="M23.6896 10.7481L23.924 10.6326L24.1444 10.814V11.0533L23.6896 10.9818V10.7508V10.7481Z" />
<path d="M24.1584 10.2834C24.3174 10.1102 24.5072 9.97547 24.5239 9.69501C24.5351 9.52179 24.6802 9.35407 24.7918 9.1286H24.3928L24.3202 8.68042C24.3928 8.72167 24.4681 8.76566 24.5574 8.81515L24.7555 8.27348L24.4625 8.10851L24.0719 8.37522L24.1612 7.97378H24.4598L24.5769 7.72632L25.3638 8.02052L25.0513 8.16075L25.5061 8.24874L25.1769 8.69967L25.5535 8.55944L25.5731 8.90314H25.0318C25.2606 9.08736 25.4001 9.23859 25.3331 9.4723L25.0541 9.34307L24.8643 9.53004C25.1043 9.63727 24.9146 9.79125 24.8867 9.93423C25.0634 9.85907 25.2122 9.74359 25.3331 9.58778C25.3889 9.89848 25.188 10.1679 25.188 10.4731C25.188 10.5254 25.0541 10.5776 24.9815 10.6271H24.6411L24.7555 10.3357L24.3956 10.5116L24.1612 10.2807L24.1584 10.2834Z" />
<path d="M24.4542 11.5867L24.7835 11.738L24.524 11.8589C24.524 11.8589 24.51 11.8452 24.4458 11.7819L24.3593 11.9744L23.9659 12.1696L23.9101 11.716L24.2226 11.606L23.8403 11.4932L23.9324 11.3558L24.2533 11.3118V11.6692L24.457 11.5812L24.4542 11.5867Z" />
<path d="M23.0758 12.3813L23.2572 11.8231L23.5167 11.6912L23.6673 11.9771C23.5027 12.0899 23.419 12.3346 23.0758 12.3786V12.3813Z" />
<path d="M24.8615 11.0946V11.265C24.8615 11.265 24.8281 11.3063 24.8253 11.3035C24.7192 11.254 24.6132 11.2018 24.5239 11.1551L24.4709 10.9461L24.3481 11.199L24.2923 11.1935L24.3174 10.8251C24.3788 10.7234 24.1082 10.5969 24.3928 10.5144C24.5016 10.7014 24.683 10.8554 24.6523 11.0918H24.8615V11.0946Z" />
<path d="M23.6785 16.8935L23.5418 17.1685L23.0005 17.0695V16.8055C23.0172 16.8 23.0591 16.778 23.0702 16.7863C23.2265 16.9293 23.3716 16.9073 23.5083 16.7588C23.5641 16.8028 23.6199 16.844 23.6785 16.8935Z" />
<path d="M23.7288 16.7668H24.0217V17.292L23.8515 17.4597L23.7288 16.7668Z" />
<path d="M24.962 14.5535V14.8697L24.7667 14.9384L24.7109 15.2546H24.6551C24.6439 15.1886 24.6412 15.1171 24.6244 15.0539C24.6049 14.9852 24.5714 14.9219 24.5295 14.8202L24.962 14.5562V14.5535Z" />
<path d="M25.8577 10.3604L25.707 10.6986L26 10.8361L25.3638 10.8636C25.3749 10.5969 25.5647 10.5034 25.8577 10.3577V10.3604Z" />
<path d="M23.2544 15.3455L23.4497 15.5379C23.2656 15.6827 23.0693 15.6855 22.861 15.5462L23.2544 15.3455Z" />
<path d="M25.2132 12.2053L24.6523 12.593V12.2878L25.1741 12.1311L25.216 12.2053H25.2132Z" />
<path d="M24.2867 13.9349L24.0496 14.0147L24.0328 14.3061L23.8124 14.3281L24.0691 13.7205L24.2867 13.9349Z" />
<path d="M9.02102 18.0263L8.40994 17.7183L8.08069 17.0859L8.16998 16.4837C8.15045 16.3793 8.09743 16.2198 8.09464 16.0603C8.08906 14.6553 8.09185 13.253 8.09185 11.8095C8.36809 11.7572 8.65549 11.793 8.9401 11.7875C9.23029 11.782 9.52048 11.7875 9.84974 11.7875C9.80788 11.9799 9.75766 12.1477 9.73534 12.3181C9.7158 12.4804 9.76045 12.6508 9.62093 12.7938C9.58187 12.8323 9.6014 12.945 9.61814 13.0193C9.72976 13.6022 9.75766 14.2181 10.0953 14.7268C10.4776 15.3042 10.9519 15.8073 11.602 16.1126C11.9173 16.261 12.2299 16.3793 12.5898 16.4233C12.8465 16.4535 13.1032 16.5717 13.3627 16.5167C13.8259 16.4233 14.3031 16.371 14.7328 16.1593C15.2155 15.9256 15.6033 15.5681 15.9605 15.1804C16.1586 14.966 16.605 14.2676 16.605 13.9514C16.605 13.5032 16.9343 13.0853 16.6692 12.6096C16.5548 12.4034 16.605 12.1092 16.5771 11.8095C17.1045 11.7462 17.6765 11.8012 18.296 11.7792V12.2934C18.296 13.7947 18.282 15.2932 18.3015 16.7944C18.3127 17.5093 17.7156 18.0345 17.0571 18.029C14.8332 18.0125 12.6066 18.0235 10.3827 18.018C10.2376 18.018 10.0953 18.0455 9.93903 17.9575C9.833 17.8998 9.64047 18.0043 9.48421 18.018C9.32795 18.0318 9.1717 18.0208 9.02381 18.0208L9.02102 18.0263Z" />
<path d="M13.7338 10.8635C13.9459 10.9708 14.1245 11.0587 14.303 11.1495C14.9281 11.4712 15.3661 12.1641 15.3606 12.8432C15.3578 13.1567 15.3968 13.4674 15.2545 13.7808C14.9727 14.3995 14.3533 15.1666 13.399 15.1391C13.1144 15.1309 12.8186 15.1446 12.5479 15.0731C11.7918 14.8697 11.2867 14.3775 11.083 13.6324C10.9491 13.1402 10.9463 12.6178 11.1556 12.1503C11.3007 11.8259 11.4904 11.4822 11.8671 11.3337C12.0652 11.2567 12.1266 11.023 12.3638 10.9735C12.5814 10.9268 12.7907 10.858 13.0195 10.8663C13.2734 10.8773 13.5273 10.8663 13.7366 10.8663L13.7338 10.8635Z" />
<path d="M18.0504 8.22394V10.2641H15.9856C15.9856 10.2641 15.9772 10.2586 15.9689 10.2421C15.9605 10.2284 15.9493 10.2091 15.9493 10.1926C15.9493 9.54099 15.9493 8.89209 15.9493 8.22119H18.0504V8.22394Z" />
<path d="M24.3928 9.12848V9.31545L23.9771 9.48868C23.7734 9.42544 23.6618 9.3292 23.6897 9.12573H23.871L23.9882 9.38419L24.0747 9.12573H24.3928V9.12848Z" />
</svg>
