<svg width="268" height="118" viewBox="0 0 268 118" fill="none" xmlns="http://www.w3.org/2000/svg">
<path d="M268 23.4255H202.669C200.013 17.839 192.941 16.9593 192.941 16.9593C132.066 5.70624 72.3623 17.1478 72.3623 17.1478C67.6041 18.0789 65.3649 21.0664 64.3195 23.4255H0L6.08351 36.0267H62.5773C62.4859 38.5343 62.4916 40.9849 62.5773 43.3669H11.0303L18.399 55.968H63.7426C64.1425 58.6642 64.6051 61.1319 65.0678 63.3082H23.0259L29.6635 75.9037H68.9407C71.5398 79.8622 75.7611 79.8051 75.7611 79.8051L192.102 79.8737C196.186 80.1821 198.305 77.6459 199.271 75.9037H238.331L244.968 63.3025H202.984C203.515 60.7834 203.926 58.3272 204.229 55.9623H249.59L256.958 43.3612H205.046C205.046 40.6421 204.943 38.1745 204.783 36.021H261.911L267.994 23.4198L268 23.4255ZM135.06 25.3677H196.877C199.962 26.8072 199.865 36.5979 199.865 36.5979H134.985L135.06 25.3677ZM70.9743 25.3677H132.752L132.678 36.5979H68.1239C68.1239 36.5979 67.8897 26.8072 70.9743 25.3677ZM132.74 76.4349L74.2874 76.7891C72.2081 76.2521 69.8947 66.5413 69.8947 66.5413H132.74V76.4349ZM132.74 64.4621H69.2092C69.2092 64.4621 68.1239 54.7513 68.1239 52.5978H132.746V64.4621H132.74ZM132.74 50.41H68.1182C68.1182 50.41 67.2613 42.1159 68.1924 38.8771H132.815L132.74 50.41ZM135.014 38.8771H199.659C200.59 42.1159 199.825 50.41 199.825 50.41H134.934L135.008 38.8771H135.014ZM198.391 64.4621H135.031V52.5978H199.476C199.476 54.757 198.391 64.4621 198.391 64.4621ZM193.564 76.7891L135.031 76.4349V66.5413H197.957C197.957 66.5413 195.643 76.2521 193.564 76.7891Z" fill="#EDAD2A"/>
<path d="M89.6418 116.895H82.8328L84.8264 115.398L82.73 110.286H77.0178L74.87 115.398L77.8404 116.895H72.6251L80.4052 98.6841H80.5537L87.7625 115.495L89.6361 116.895H89.6418ZM82.2102 109.035L79.8911 103.397L77.549 109.035H82.2159H82.2102Z" fill="#EDAD2A"/>
<path d="M103.488 115.946L100.644 117.146L99.8724 114.924H99.7467C98.9984 115.672 97.0505 117.146 94.9085 117.146C93.4347 117.146 91.6411 116.346 91.6411 113.679V107.715L89.8931 106.418L93.886 104.67V112.553C93.886 114.747 94.9085 115.272 96.108 115.272C96.9077 115.272 98.1758 115.072 99.5011 114.05V107.715L97.7531 106.418L101.746 104.67V114.65L103.494 115.946H103.488Z" fill="#EDAD2A"/>
<path d="M114.467 113.901L114.593 114.027C113.97 116.272 112.474 117.146 110.874 117.146C108.681 117.146 107.333 115.449 107.333 113.53V106.418H104.614L109.577 102.7V104.922H114.816L114.044 106.418H109.577V112.53C109.577 113.679 109.852 115.027 111.697 115.027C112.594 115.027 113.445 114.701 114.467 113.907V113.901Z" fill="#EDAD2A"/>
<path d="M116.815 110.908C116.815 107.041 119.585 104.67 122.927 104.67C126.269 104.67 129.039 107.041 129.039 110.908C129.039 114.775 126.269 117.146 122.927 117.146C119.585 117.146 116.815 114.775 116.815 110.908ZM126.371 111.457C126.371 108.086 124.652 105.67 122.527 105.67C120.259 105.67 119.437 107.892 119.437 110.36C119.437 113.73 121.208 116.146 123.327 116.146C125.595 116.146 126.371 113.924 126.371 111.457Z" fill="#EDAD2A"/>
<path d="M141.172 109.452L141.149 110.954L132.512 110.863L132.535 109.36L141.172 109.452Z" fill="#EDAD2A"/>
<path d="M164.283 100.929L158.994 117.643H158.845L153.259 103.9L148.146 117.643H147.998L141.863 100.781L140.092 99.4326H146.65L144.656 100.929L148.672 112.279L152.465 101.952L151.442 99.4326H155.258L154.761 100.929L159.199 112.279L162.69 100.929L159.696 99.4326H166.283L164.289 100.929H164.283Z" fill="#EDAD2A"/>
<path d="M175.514 113.65L175.639 113.776C174.765 116.398 172.823 117.146 171.127 117.146C167.985 117.146 165.414 114.553 165.414 110.811C165.414 106.847 168.282 104.676 171.275 104.676C173.623 104.676 175.668 106.024 175.891 109.292H167.682C167.659 109.543 167.659 109.789 167.659 110.063C167.659 112.959 169.104 115.027 171.875 115.027C172.875 115.027 174.068 114.753 175.519 113.656L175.514 113.65ZM167.831 108.412H173.269C173.269 106.864 172.617 105.596 170.921 105.596C169.424 105.596 168.276 106.618 167.831 108.412Z" fill="#EDAD2A"/>
<path d="M183.996 116.895H177.758L179.752 115.398V100.484L178.004 99.1869L181.997 97.439V115.398L183.991 116.895H183.996Z" fill="#EDAD2A"/>
<path d="M194.724 113.901L194.849 114.027C194.227 116.272 192.73 117.146 191.131 117.146C188.937 117.146 187.589 115.449 187.589 113.53V106.418H184.87L189.834 102.7V104.922H195.072L194.301 106.418H189.834V112.53C189.834 113.679 190.108 115.027 191.953 115.027C192.85 115.027 193.701 114.701 194.724 113.907V113.901Z" fill="#EDAD2A"/>
<path d="M79.4398 5.39251L78.6972 10.2365H78.6515L76.3438 6.77488L75.5041 10.7963H75.4584L72.8422 6.51211L72.2596 6.23793L74.1846 5.89519L73.6705 6.4093L75.4013 9.30539L76.0125 6.28363L75.5898 5.64957L76.7094 5.44964L76.6351 5.88376L78.4859 8.75702L78.96 5.47249L78.006 5.22115L79.9425 4.87842L79.4284 5.39251H79.4398Z" fill="#EDAD2A"/>
<path d="M82.3816 10.5503L83.4726 10.9387L81.6847 11.2186L82.4044 9.03657L80.5423 6.70028L79.9825 6.4318L81.8732 6.13477L81.3477 6.63744L82.6558 8.29398L83.2099 6.34612L82.4958 6.03766L84.1752 5.7749L83.6497 6.27757L82.3759 10.5446L82.3816 10.5503Z" fill="#EDAD2A"/>
<path d="M84.518 6.15798L85.6261 5.50679L86.1231 8.93412C86.2374 9.77953 85.9803 10.3336 85.2263 10.8134L85.1863 10.7849C85.5119 10.2593 85.5633 9.74525 85.4491 8.96267L85.0835 6.43788L84.518 6.15798ZM84.6608 4.52429C84.6265 4.2958 84.7979 4.08445 85.0435 4.05017C85.2891 4.0159 85.5119 4.17013 85.5462 4.39862C85.5804 4.62711 85.4091 4.83846 85.1635 4.87273C84.9178 4.90701 84.6951 4.75278 84.6608 4.52429Z" fill="#EDAD2A"/>
<path d="M90.6986 9.30557L90.7386 9.33413C90.6872 9.61974 90.493 9.95105 90.0417 10.0082C89.6076 10.0653 89.3048 9.82538 89.2477 9.43695C89.202 9.10564 89.4305 8.76862 89.8018 8.4316C89.4648 8.44874 89.2192 8.2945 89.1163 8.00889H89.0764C88.8764 8.36876 88.5508 8.60297 88.0881 8.6658C87.4998 8.74577 87.0485 8.50015 86.9857 7.99747C86.9343 7.63189 87.1114 7.32343 87.3798 7.14064L88.8936 6.935L88.8136 6.35806C88.7393 5.82111 88.4823 5.63833 87.9739 5.71259C87.6255 5.75829 87.277 5.9068 86.9343 6.20384L86.8943 6.17528C87.1685 5.5298 87.7397 5.22133 88.2709 5.14708C88.9336 5.05568 89.3505 5.36414 89.4419 6.03247L89.6533 7.58619C89.699 7.91179 89.8646 7.9632 90.0646 7.93464C90.2074 7.9175 90.3159 7.86609 90.4758 7.71757L90.5158 7.74614C90.4301 8.07744 90.2988 8.26023 90.1217 8.35163C89.8818 8.63724 89.7333 8.93428 89.7675 9.17419C89.8132 9.49979 90.0074 9.56262 90.2359 9.52834C90.4016 9.5055 90.533 9.43695 90.6872 9.30557H90.6986ZM89.0078 7.74614L88.9278 7.17491L87.774 7.32915C87.6883 7.46053 87.6483 7.60904 87.6711 7.80325C87.7226 8.17455 87.9967 8.25452 88.2538 8.22025C88.5051 8.18598 88.745 8.03745 89.0021 7.74042L89.0078 7.74614Z" fill="#EDAD2A"/>
<path d="M93.4404 7.06084L93.4804 7.0894C93.3719 7.72917 92.9606 8.0262 92.4865 8.08904C91.8353 8.16901 91.3783 7.75202 91.3155 7.22079L91.0699 5.26149L90.2644 5.3586L91.6068 4.15332L91.6811 4.76453L93.2348 4.57032L93.0577 5.01015L91.7382 5.17581L91.9495 6.86091C91.9895 7.17509 92.1152 7.54067 92.6636 7.47212C92.932 7.43785 93.172 7.31789 93.4461 7.06084H93.4404Z" fill="#EDAD2A"/>
<path d="M95.2112 7.27183L95.851 7.62027L94.0002 7.83162L94.5429 7.3518L94.0745 3.23329L93.5147 2.93626L94.64 2.31934L95.2055 7.28325L95.2112 7.27183ZM98.1073 7.36322V7.39749C96.9649 7.66597 96.5821 7.34609 95.394 5.9009L96.565 4.60993L95.6967 4.29005L97.479 4.09012L96.068 5.68383C96.8735 6.64348 97.2676 7.07761 98.1016 7.36893L98.1073 7.36322Z" fill="#EDAD2A"/>
<path d="M98.033 5.70137C97.9245 4.63318 98.6785 3.89631 99.6725 3.79349C100.666 3.69067 101.552 4.2676 101.66 5.33008C101.769 6.39826 101.015 7.13513 100.021 7.23795C99.027 7.34077 98.1416 6.76384 98.033 5.69566V5.70137ZM100.883 5.56999C100.792 4.6389 100.209 4.02197 99.5811 4.08481C98.907 4.15335 98.7242 4.79313 98.7928 5.47288C98.8899 6.40397 99.4782 7.01518 100.112 6.95234C100.786 6.8838 100.952 6.24974 100.883 5.56427V5.56999Z" fill="#EDAD2A"/>
<path d="M107.304 3.58755L106.304 6.80352H106.259L104.888 4.57576L103.911 7.00916H103.865L102.037 3.94741L101.552 3.66752L103.437 3.50186L102.877 3.97026L103.974 5.82102L104.631 4.15305L104.197 3.43902L105.373 3.33621L105.208 3.77033L106.293 5.55255L106.858 3.62753L106.167 3.26766L107.858 3.11914L107.298 3.58183L107.304 3.58755Z" fill="#EDAD2A"/>
<path d="M111.125 5.31847L111.165 5.34703C110.96 6.08962 110.394 6.34095 109.892 6.38094C108.955 6.44949 108.138 5.78687 108.064 4.75295C107.984 3.65621 108.795 2.98788 109.686 2.92505C110.383 2.87364 111.023 3.20494 111.154 4.10176L108.709 4.27884C108.709 4.34739 108.709 4.41594 108.715 4.49591C108.772 5.29562 109.246 5.83828 110.069 5.78116C110.366 5.75831 110.714 5.65548 111.125 5.32418V5.31847ZM108.732 4.03322L110.354 3.91326C110.326 3.48484 110.103 3.14782 109.6 3.1821C109.155 3.21637 108.835 3.52483 108.738 4.03322H108.732Z" fill="#EDAD2A"/>
<path d="M119.717 5.72389L117.86 5.82099L118.431 5.37544L118.34 3.6732C118.306 3.062 118.071 2.93062 117.637 2.95347C117.397 2.96489 117.1 3.03915 116.718 3.3419L116.832 5.46113L117.449 5.84385L115.587 5.94095L116.158 5.4954L116.067 3.79316C116.032 3.18196 115.798 3.05057 115.364 3.07342C115.124 3.08484 114.821 3.15911 114.444 3.46186L114.558 5.58108L115.175 5.9638L113.319 6.06092L113.89 5.61536L113.776 3.4847L113.239 3.15339L114.404 2.60502L114.324 3.19338L114.364 3.22765C114.667 2.88492 115.095 2.57074 115.701 2.53647C116.118 2.51362 116.506 2.63929 116.655 3.07342C116.958 2.74211 117.38 2.44508 117.969 2.41081C118.483 2.38225 118.957 2.58217 118.991 3.31905L119.1 5.33546L119.717 5.71818V5.72389Z" fill="#EDAD2A"/>
<path d="M120.111 4.05067C120.071 2.97677 120.87 2.28559 121.864 2.25131C122.858 2.21133 123.709 2.83967 123.749 3.91357C123.789 4.98747 122.99 5.67865 121.996 5.71292C120.996 5.75291 120.151 5.12456 120.105 4.05067H120.111ZM122.967 4.09636C122.933 3.15956 122.39 2.50836 121.762 2.53121C121.082 2.55406 120.865 3.1824 120.888 3.86787C120.922 4.80467 121.476 5.45587 122.11 5.43302C122.784 5.40446 122.995 4.78183 122.967 4.09636Z" fill="#EDAD2A"/>
<path d="M128.376 5.19255L127.537 5.54671L127.291 4.93551H127.257C127.051 5.25539 126.611 5.56956 126.046 5.58098C125.286 5.59812 124.469 5.0726 124.446 3.97014C124.418 2.77629 125.349 2.1308 126.326 2.10795C126.531 2.10795 126.845 2.1251 127.114 2.19364L127.085 0.92553L126.554 0.577084L127.731 0.0629883L127.845 4.84411L128.376 5.19255ZM127.171 4.6956L127.131 3.00478C127.12 2.58778 126.697 2.37643 126.274 2.38786C125.617 2.40499 125.155 2.93623 125.177 3.79877C125.195 4.59277 125.612 5.0726 126.263 5.05546C126.583 5.04975 126.92 4.92408 127.171 4.6956Z" fill="#EDAD2A"/>
<path d="M131.935 4.5132L131.975 4.54747C131.724 5.27863 131.147 5.49569 130.638 5.50141C129.702 5.51283 128.925 4.79881 128.913 3.7649C128.902 2.66244 129.747 2.05123 130.644 2.03981C131.347 2.02838 131.958 2.39968 132.038 3.30221L129.587 3.33077C129.582 3.39932 129.587 3.46786 129.587 3.54783C129.599 4.35325 130.039 4.91876 130.861 4.91305C131.158 4.91305 131.518 4.82736 131.946 4.51891L131.935 4.5132ZM129.622 3.08514L131.244 3.06801C131.244 2.63959 131.038 2.28543 130.536 2.29114C130.09 2.29114 129.747 2.58247 129.622 3.08514Z" fill="#EDAD2A"/>
<path d="M134.386 5.40375H132.523L133.118 4.99247L133.1 0.851115L132.575 0.491251L133.763 0L133.786 4.98676L134.386 5.39804V5.40375Z" fill="#EDAD2A"/>
<path d="M137.876 4.51284L137.91 4.54711C137.647 5.27256 137.065 5.4782 136.556 5.4782C135.619 5.4782 134.854 4.75275 134.86 3.71313C134.86 2.61067 135.722 2.0166 136.619 2.0166C137.322 2.0166 137.927 2.39932 137.99 3.30185L135.54 3.29042C135.534 3.35897 135.534 3.42752 135.534 3.50749C135.534 4.31291 135.962 4.88413 136.785 4.88985C137.082 4.88985 137.442 4.81558 137.876 4.51284ZM135.591 3.05051H137.213C137.213 2.62781 137.025 2.27365 136.516 2.27365C136.071 2.27365 135.728 2.55355 135.591 3.05051Z" fill="#EDAD2A"/>
<path d="M141.286 5.04975L141.874 5.47817L140.012 5.43818L140.618 5.03261L140.709 0.891258L140.195 0.519959L141.395 0.0629883L141.286 5.04975ZM144.142 5.52957V5.56385C142.971 5.67809 142.634 5.3068 141.652 3.71309L142.988 2.5935L142.171 2.15937L143.965 2.19935L142.36 3.58742C143.028 4.6499 143.36 5.12972 144.148 5.52957H144.142Z" fill="#EDAD2A"/>
<path d="M144.302 3.86754C144.336 2.79364 145.187 2.1653 146.181 2.19958C147.181 2.23385 147.981 2.91931 147.946 3.99321C147.912 5.06711 147.061 5.69545 146.067 5.66118C145.067 5.6269 144.268 4.94144 144.302 3.86754ZM147.147 4.11888C147.175 3.18208 146.69 2.49662 146.056 2.47377C145.382 2.45092 145.113 3.05641 145.09 3.74187C145.056 4.67868 145.564 5.36986 146.198 5.38699C146.878 5.40984 147.13 4.80435 147.152 4.11888H147.147Z" fill="#EDAD2A"/>
<path d="M150.248 5.76386L148.392 5.67817L149.003 5.28974L149.186 1.14839L148.683 0.765668L149.894 0.331543L149.671 5.31831L150.248 5.75815V5.76386Z" fill="#EDAD2A"/>
<path d="M153.79 5.05014L153.824 5.08441C153.527 5.79844 152.933 5.97552 152.43 5.94695C151.494 5.89554 150.768 5.13583 150.825 4.0962C150.882 2.99374 151.774 2.43966 152.665 2.49107C153.362 2.53106 153.95 2.93662 153.973 3.84486L151.528 3.71348C151.517 3.78203 151.511 3.85058 151.511 3.92483C151.471 4.73026 151.871 5.32433 152.693 5.37002C152.99 5.38716 153.35 5.33004 153.801 5.05014H153.79ZM151.579 3.47357L153.202 3.55925C153.224 3.13084 153.047 2.76525 152.545 2.73669C152.099 2.71384 151.739 2.9766 151.579 3.46786V3.47357Z" fill="#EDAD2A"/>
<path d="M155.612 5.64951L156.178 6.10648L154.321 5.98082L154.944 5.60381L155.224 1.46816L154.727 1.07402L155.949 0.668457L155.612 5.64379V5.64951ZM158.445 6.255V6.28928C157.269 6.3464 156.949 5.96368 156.035 4.32999L157.417 3.26752L156.623 2.79911L158.411 2.91907L156.737 4.22716C157.36 5.3182 157.669 5.80944 158.44 6.24929L158.445 6.255Z" fill="#EDAD2A"/>
<path d="M161.616 5.6043L161.65 5.64428C161.33 6.34688 160.736 6.51254 160.233 6.47256C159.297 6.3983 158.594 5.61001 158.674 4.58752C158.765 3.40509 159.834 2.95954 160.645 3.02237C161.165 3.06236 161.547 3.23373 161.827 3.46222L161.313 4.00488L160.548 3.29085C159.908 3.23944 159.422 3.64501 159.359 4.44472C159.297 5.21016 159.674 5.83278 160.508 5.89562C160.805 5.91847 161.165 5.87277 161.621 5.59858L161.616 5.6043Z" fill="#EDAD2A"/>
<path d="M162.307 3.6507L163.535 3.27369L163.227 6.72387C163.141 7.56927 162.764 8.05482 161.924 8.34614L161.89 8.30615C162.324 7.87202 162.495 7.38077 162.564 6.59249L162.787 4.05055L162.301 3.64498L162.307 3.6507ZM162.821 2.09698C162.844 1.86849 163.055 1.70283 163.301 1.71997C163.546 1.7371 163.729 1.94845 163.706 2.17123C163.689 2.39972 163.472 2.56538 163.227 2.54253C162.981 2.51968 162.798 2.31975 162.821 2.09126V2.09698Z" fill="#EDAD2A"/>
<path d="M164.358 5.08383C164.466 4.01564 165.352 3.43871 166.345 3.54153C167.339 3.64435 168.093 4.37551 167.991 5.44941C167.882 6.51759 166.997 7.09453 166.003 6.99171C165.009 6.8946 164.255 6.15773 164.358 5.08383ZM167.179 5.51795C167.271 4.58686 166.825 3.86712 166.197 3.80429C165.523 3.73574 165.214 4.32981 165.152 5.00957C165.06 5.94066 165.517 6.6604 166.146 6.72323C166.82 6.79178 167.111 6.19771 167.179 5.51795Z" fill="#EDAD2A"/>
<path d="M172.577 7.6436L170.727 7.43226L171.366 7.08952L171.561 5.39299C171.629 4.7875 171.344 4.60471 170.915 4.55901C170.681 4.53045 170.293 4.54187 169.87 4.78179L169.624 6.8896L170.167 7.36942L168.316 7.15807L168.956 6.81533L169.202 4.69611L168.727 4.27911L169.967 3.93066L169.79 4.49618L169.824 4.53616C170.235 4.23341 170.692 4.01635 171.326 4.0849C171.835 4.14202 172.343 4.42763 172.258 5.1645L172.029 7.16949L172.572 7.64932L172.577 7.6436Z" fill="#EDAD2A"/>
<path d="M176.136 7.1972L176.17 7.23719C175.816 7.92266 175.216 8.05975 174.714 7.9912C173.783 7.87125 173.114 7.0544 173.251 6.0262C173.394 4.93517 174.32 4.44392 175.205 4.55816C175.902 4.64956 176.456 5.09511 176.405 6.00906L173.977 5.6949C173.96 5.76344 173.954 5.83199 173.943 5.90625C173.84 6.70596 174.194 7.32858 175.017 7.43712C175.314 7.4771 175.679 7.44283 176.142 7.1972H176.136ZM174.051 5.46069L175.662 5.66633C175.719 5.23792 175.571 4.86662 175.068 4.79808C174.622 4.74095 174.251 4.98086 174.051 5.45498V5.46069Z" fill="#EDAD2A"/>
<path d="M178.198 5.90712L177.913 7.94067L178.741 8.47762L176.605 8.17487L177.25 7.84927L177.547 5.73575L177.084 5.30734L178.33 4.99316L178.084 5.70719L178.118 5.72433C178.45 5.30734 179.038 5.02173 179.683 5.25593L179.329 5.88999C178.861 5.68435 178.45 5.74146 178.198 5.91283V5.90712Z" fill="#EDAD2A"/>
<path d="M182.402 8.0712C182.305 8.71668 181.591 8.97944 180.946 8.87662C180.66 8.83092 180.38 8.71668 180.158 8.5853L179.678 8.67669L179.855 7.53425L180.323 8.33396C180.529 8.47106 180.74 8.55674 180.946 8.59101C181.374 8.65385 181.62 8.45392 181.666 8.1683C181.797 7.31718 179.895 7.25435 180.06 6.19759C180.163 5.54069 180.917 5.36361 181.529 5.455C181.786 5.49499 182.02 5.58639 182.225 5.70063L182.631 5.62066L182.454 6.7631L181.928 5.86057C181.803 5.79774 181.66 5.75204 181.511 5.72919C181.026 5.65494 180.78 5.872 180.74 6.12905C180.62 6.89449 182.568 6.95732 182.397 8.05978L182.402 8.0712Z" fill="#EDAD2A"/>
<path d="M184.145 8.89395L184.664 9.40233L182.831 9.09388L183.488 8.78541L184.173 4.70118L183.722 4.26134L184.979 3.98145L184.15 8.89966L184.145 8.89395ZM186.898 9.77934V9.81361C185.716 9.75649 185.441 9.34521 184.693 7.62012L186.178 6.70617L185.436 6.1578L187.206 6.45483L185.413 7.59156C185.921 8.73972 186.178 9.25953 186.898 9.77363V9.77934Z" fill="#EDAD2A"/>
<path d="M188.903 10.1507L187.069 9.81943L187.732 9.51668L188.115 7.41459L187.663 6.96904L188.92 6.70627L188.389 9.63664L188.903 10.1507ZM188.315 5.46672C188.355 5.24394 188.589 5.09543 188.829 5.13541C189.069 5.18111 189.234 5.39817 189.194 5.62666C189.154 5.85515 188.92 5.99796 188.68 5.95797C188.44 5.91227 188.275 5.69521 188.315 5.46672Z" fill="#EDAD2A"/>
<path d="M192.496 9.92252L192.524 9.9625C192.13 10.6251 191.525 10.7222 191.028 10.6251C190.108 10.448 189.491 9.59692 189.686 8.57444C189.891 7.49483 190.851 7.0607 191.725 7.23206C192.41 7.36344 192.941 7.84898 192.833 8.75151L190.428 8.28883C190.405 8.35737 190.394 8.42592 190.382 8.50018C190.228 9.28846 190.548 9.93395 191.353 10.0939C191.645 10.151 192.01 10.1453 192.49 9.92823L192.496 9.92252ZM190.52 8.06034L192.113 8.3688C192.193 7.94609 192.073 7.56337 191.576 7.46627C191.136 7.38058 190.748 7.59765 190.525 8.06034H190.52Z" fill="#EDAD2A"/>
<path d="M144.176 14.4692H142.131V15.1604H142.76L140.846 20.8669L138.047 15.1604H138.51V14.4692H134.346V15.1604H134.717L132.706 21.1411L129.433 14.4692H126.834L124.538 21.3125H123.812V22.0036H125.857V21.3125H125.263L126.023 19.0504H128.788V19.039L129.827 21.3125H129.433V22.0036H133.546V21.3125H133.375L135.368 15.3775L138.407 22.0036H141.177L143.48 15.1661H144.159V14.4749L144.176 14.4692ZM126.263 18.3593L127.2 15.566L128.479 18.3593H126.263Z" fill="#EDAD2A"/>
</svg>
