<svg width="134" height="53" viewBox="0 0 134 53" fill="none" xmlns="http://www.w3.org/2000/svg">
<path d="M133.742 5.66532H101.33C100.012 2.89371 96.5039 2.45727 96.5039 2.45727C66.3024 -3.12563 36.6819 2.5508 36.6819 2.5508C34.3212 3.01273 33.2103 4.49489 32.6916 5.66532H0.78125L3.79942 11.917H31.8273C31.7819 13.1611 31.7848 14.3769 31.8273 15.5587H6.25363L9.90944 21.8104H32.4054C32.6038 23.148 32.8333 24.3723 33.0629 25.452H12.2049L15.498 31.7009H34.9843C36.2738 33.6649 38.3681 33.6365 38.3681 33.6365L96.0874 33.6705C98.1136 33.8236 99.165 32.5653 99.644 31.7009H119.023L122.316 25.4492H101.486C101.75 24.1994 101.954 22.9808 102.104 21.8076H124.608L128.264 15.5558H102.509C102.509 14.2069 102.458 12.9826 102.379 11.9142H130.721L133.739 5.66249L133.742 5.66532ZM67.7874 6.62886H98.4566C99.9869 7.34302 99.9387 12.2004 99.9387 12.2004H67.7506L67.7874 6.62886ZM35.9932 6.62886H66.6425L66.6057 12.2004H34.5791C34.5791 12.2004 34.4629 7.34302 35.9932 6.62886ZM66.6368 31.9645L37.6369 32.1402C36.6053 31.8738 35.4576 27.0561 35.4576 27.0561H66.6368V31.9645ZM66.6368 26.0245H35.1175C35.1175 26.0245 34.5791 21.2068 34.5791 20.1384H66.6397V26.0245H66.6368ZM66.6368 19.0529H34.5762C34.5762 19.0529 34.1511 14.938 34.6131 13.3312H66.6737L66.6368 19.0529ZM67.7647 13.3312H99.8367C100.299 14.938 99.9189 19.0529 99.9189 19.0529H67.7251L67.7619 13.3312H67.7647ZM99.2076 26.0245H67.7732V20.1384H99.746C99.746 21.2096 99.2076 26.0245 99.2076 26.0245ZM96.8128 32.1402L67.7732 31.9645V27.0561H98.9922C98.9922 27.0561 97.8444 31.8738 96.8128 32.1402Z" fill="#EDAD2A"/>
<path d="M45.2549 52.0378H41.8768L42.8658 51.2953L41.8258 48.7589H38.9918L37.9262 51.2953L39.3999 52.0378H36.8125L40.6724 43.0032H40.746L44.3225 51.3435L45.252 52.0378H45.2549ZM41.5679 48.1383L40.4173 45.3412L39.2554 48.1383H41.5707H41.5679Z" fill="#24433E"/>
<path d="M52.1276 51.5674L50.7163 52.1625L50.3337 51.0601H50.2714C49.9001 51.4313 48.9338 52.1625 47.871 52.1625C47.1399 52.1625 46.25 51.7658 46.25 50.4423V47.4836L45.3828 46.8403L47.3638 45.9731V49.884C47.3638 50.9722 47.871 51.233 48.4662 51.233C48.8629 51.233 49.4921 51.1338 50.1495 50.6265V47.4836L49.2823 46.8403L51.2633 45.9731V50.9241L52.1305 51.5674H52.1276Z" fill="#24433E"/>
<path d="M57.5761 50.5528L57.6384 50.6151C57.3295 51.7288 56.587 52.1625 55.7935 52.1625C54.7053 52.1625 54.0365 51.3208 54.0365 50.3685V46.8403H52.6875L55.1502 44.9954V46.0978H57.749L57.3664 46.8403H55.1502V49.8726C55.1502 50.4422 55.2862 51.111 56.2016 51.111C56.6465 51.111 57.0688 50.9495 57.5761 50.5556V50.5528Z" fill="#24433E"/>
<path d="M58.7344 49.0678C58.7344 47.1492 60.1088 45.9731 61.7667 45.9731C63.4246 45.9731 64.799 47.1492 64.799 49.0678C64.799 50.9864 63.4246 52.1625 61.7667 52.1625C60.1088 52.1625 58.7344 50.9864 58.7344 49.0678ZM63.4756 49.3399C63.4756 47.6678 62.6226 46.4691 61.5683 46.4691C60.4433 46.4691 60.0352 47.5715 60.0352 48.7958C60.0352 50.4678 60.9137 51.6666 61.9651 51.6666C63.0902 51.6666 63.4756 50.5642 63.4756 49.3399Z" fill="#24433E"/>
<path d="M70.8197 48.3451L70.8084 49.0905L66.5234 49.0451L66.5348 48.2998L70.8197 48.3451Z" fill="#24433E"/>
<path d="M82.2831 44.1168L79.6588 52.4089H79.5851L76.8135 45.5904L74.2771 52.4089H74.2035L71.1598 44.0431L70.2812 43.3743H73.5346L72.5456 44.1168L74.5379 49.7478L76.4196 44.624L75.9123 43.3743H77.8054L77.5589 44.1168L79.7608 49.7478L81.4924 44.1168L80.0074 43.3743H83.275L82.2859 44.1168H82.2831Z" fill="#24433E"/>
<path d="M87.862 50.4277L87.9244 50.4901C87.4908 51.7909 86.5272 52.1621 85.6855 52.1621C84.1268 52.1621 82.8516 50.8755 82.8516 49.0193C82.8516 47.0525 84.2742 45.9756 85.7592 45.9756C86.924 45.9756 87.9385 46.6444 88.049 48.2654H83.9766C83.9653 48.3901 83.9653 48.512 83.9653 48.648C83.9653 50.0848 84.6823 51.1107 86.0568 51.1107C86.5527 51.1107 87.145 50.9747 87.8648 50.4306L87.862 50.4277ZM84.0503 47.829H86.7483C86.7483 47.061 86.4252 46.4319 85.5835 46.4319C84.841 46.4319 84.2714 46.9391 84.0503 47.829Z" fill="#24433E"/>
<path d="M92.0634 52.0377H88.9688L89.9578 51.2952V43.8958L89.0906 43.2524L91.0715 42.3853V51.2952L92.0606 52.0377H92.0634Z" fill="#24433E"/>
<path d="M97.3886 50.5528L97.4509 50.6151C97.142 51.7288 96.3995 52.1625 95.606 52.1625C94.5178 52.1625 93.849 51.3208 93.849 50.3685V46.8403H92.5L94.9627 44.9954V46.0978H97.5615L97.1789 46.8403H94.9627V49.8726C94.9627 50.4422 95.0987 51.111 96.0141 51.111C96.4591 51.111 96.8813 50.9495 97.3886 50.5556V50.5528Z" fill="#24433E"/>
<path d="M72.3062 1.22168H71.2916V1.56459H71.6034L70.654 4.39571L69.2654 1.56459H69.4949V1.22168H67.4289V1.56459H67.6132L66.6156 4.53174L64.9917 1.22168H63.7023L62.563 4.61676H62.2031V4.95967H63.2177V4.61676H62.923L63.2999 3.49451H64.6715V3.48885L65.1873 4.61676H64.9917V4.95967H67.0322V4.61676H66.9472L67.9362 1.67228L69.4439 4.95967H70.8184L71.9605 1.56742H72.2977V1.22451L72.3062 1.22168ZM63.4189 3.15161L63.8837 1.7658L64.5185 3.15161H63.4189Z" fill="#23423D"/>
</svg>
