<svg width="202" height="89" viewBox="0 0 202 89" fill="none" xmlns="http://www.w3.org/2000/svg">
<path d="M201.135 18.2708H152.315C150.33 14.1182 145.046 13.4643 145.046 13.4643C99.5551 5.09975 54.9396 13.6044 54.9396 13.6044C51.3839 14.2965 49.7106 16.5172 48.9294 18.2708H0.864929L5.41099 27.6374H47.6275C47.5592 29.5014 47.5635 31.3229 47.6275 33.0935H9.1076L14.6141 42.4601H48.4983C48.7971 44.4642 49.1428 46.2984 49.4886 47.9162H18.0717L23.0318 57.2785H52.3827C54.3249 60.221 57.4794 60.1785 57.4794 60.1785L144.418 60.2295C147.47 60.4588 149.054 58.5735 149.775 57.2785H178.964L183.924 47.9119H152.55C152.947 46.0394 153.254 44.2137 153.48 42.4558H187.377L192.884 33.0892H154.091C154.091 31.0681 154.014 29.2339 153.894 27.6331H196.585L201.131 18.2665L201.135 18.2708ZM101.792 19.7144H147.987C150.292 20.7844 150.219 28.062 150.219 28.062H101.736L101.792 19.7144ZM53.9023 19.7144H100.067L100.012 28.062H51.7723C51.7723 28.062 51.5973 20.7844 53.9023 19.7144ZM100.059 57.6734L56.3781 57.9367C54.8244 57.5375 53.0956 50.3194 53.0956 50.3194H100.059V57.6734ZM100.059 48.7738H52.5833C52.5833 48.7738 51.7723 41.5557 51.7723 39.955H100.063V48.7738H100.059ZM100.059 38.3287H51.768C51.768 38.3287 51.1277 32.1636 51.8235 29.7561H100.114L100.059 38.3287ZM101.758 29.7561H150.065C150.761 32.1636 150.189 38.3287 150.189 38.3287H101.698L101.753 29.7561H101.758ZM149.118 48.7738H101.77V39.955H149.929C149.929 41.5599 149.118 48.7738 149.118 48.7738ZM145.511 57.9367L101.77 57.6734V50.3194H148.793C148.793 50.3194 147.065 57.5375 145.511 57.9367Z" fill="#EDAD2A"/>
<path d="M67.8522 87.7478H62.764L64.2537 86.6354L62.6871 82.8352H58.4185L56.8135 86.6354L59.0332 87.7478H55.136L60.9498 74.2117H61.0608L66.4478 86.7076L67.8479 87.7478H67.8522ZM62.2987 81.9054L60.5657 77.7146L58.8155 81.9054H62.303H62.2987Z" fill="#24433E"/>
<path d="M78.1993 87.0432L76.0735 87.9348L75.4972 86.2831H75.4033C74.8441 86.8394 73.3885 87.9348 71.7878 87.9348C70.6865 87.9348 69.3462 87.3404 69.3462 85.3575V80.9247L68.04 79.9609L71.0237 78.6616V84.5211C71.0237 86.1515 71.7878 86.5421 72.6842 86.5421C73.2818 86.5421 74.2295 86.3935 75.2198 85.6335V80.9247L73.9136 79.9609L76.8973 78.6616V86.0793L78.2035 87.0432H78.1993Z" fill="#24433E"/>
<path d="M86.4035 85.5231L86.4974 85.6165C86.0321 87.2852 84.9138 87.9348 83.7185 87.9348C82.0794 87.9348 81.072 86.6738 81.072 85.2471V79.9609H79.0402L82.7496 77.1968V78.8485H86.6639L86.0876 79.9609H82.7496V84.5041C82.7496 85.3575 82.9545 86.3596 84.3332 86.3596C85.0034 86.3596 85.6394 86.1176 86.4035 85.5274V85.5231Z" fill="#24433E"/>
<path d="M88.1579 83.2982C88.1579 80.4237 90.2282 78.6616 92.7253 78.6616C95.2224 78.6616 97.2927 80.4237 97.2927 83.2982C97.2927 86.1727 95.2224 87.9348 92.7253 87.9348C90.2282 87.9348 88.1579 86.1727 88.1579 83.2982ZM95.2993 83.7058C95.2993 81.2007 94.0144 79.4047 92.4265 79.4047C90.7319 79.4047 90.1172 81.0563 90.1172 82.8906C90.1172 85.3957 91.4405 87.1918 93.0241 87.1918C94.7187 87.1918 95.2993 85.5401 95.2993 83.7058Z" fill="#24433E"/>
<path d="M106.359 82.2154L106.342 83.333L99.8881 83.265L99.9051 82.1475L106.359 82.2154Z" fill="#24433E"/>
<path d="M123.63 75.8805L119.677 88.3042H119.566L115.392 78.0884L111.571 88.3042H111.46L106.876 75.7701L105.552 74.7681H110.453L108.963 75.8805L111.964 84.3173L114.798 76.6405L114.034 74.7681H116.886L116.514 75.8805L119.831 84.3173L122.439 75.8805L120.202 74.7681H125.124L123.634 75.8805H123.63Z" fill="#24433E"/>
<path d="M132.022 85.3362L132.116 85.4296C131.463 87.3785 130.012 87.9347 128.744 87.9347C126.396 87.9347 124.475 86.0071 124.475 83.226C124.475 80.2792 126.618 78.6658 128.855 78.6658C130.609 78.6658 132.137 79.6678 132.304 82.0965H126.17C126.153 82.2833 126.153 82.4659 126.153 82.6697C126.153 84.8224 127.233 86.3595 129.303 86.3595C130.05 86.3595 130.942 86.1557 132.026 85.3404L132.022 85.3362ZM126.281 81.4426H130.345C130.345 80.292 129.858 79.3494 128.59 79.3494C127.472 79.3494 126.614 80.1094 126.281 81.4426Z" fill="#24433E"/>
<path d="M138.361 87.7479H133.7L135.189 86.6355V75.5492L133.883 74.5854L136.867 73.2861V86.6355L138.357 87.7479H138.361Z" fill="#24433E"/>
<path d="M146.377 85.5231L146.471 85.6165C146.006 87.2852 144.888 87.9348 143.692 87.9348C142.053 87.9348 141.046 86.6738 141.046 85.2471V79.9609H139.014L142.723 77.1968V78.8485H146.638L146.062 79.9609H142.723V84.5041C142.723 85.3575 142.928 86.3596 144.307 86.3596C144.977 86.3596 145.613 86.1176 146.377 85.5274V85.5231Z" fill="#24433E"/>
<path d="M60.2284 4.86627L59.6735 8.46686H59.6394L57.9148 5.8938L57.2874 8.88296H57.2532L55.2982 5.69848L54.8628 5.49467L56.3013 5.23991L55.9171 5.62205L57.2105 7.77476L57.6673 5.52864L57.3514 5.05734L58.188 4.90873L58.1325 5.23142L59.5156 7.36715L59.8699 4.92572L59.157 4.73889L60.6041 4.48413L60.2199 4.86627H60.2284Z" fill="#24433E"/>
<path d="M62.4267 8.70051L63.242 8.98924L61.906 9.19729L62.4438 7.57533L61.0522 5.83872L60.6339 5.63916L62.0468 5.41837L61.6541 5.79202L62.6316 7.02335L63.0457 5.57548L62.5121 5.34619L63.7671 5.15088L63.3744 5.52452L62.4225 8.69626L62.4267 8.70051Z" fill="#24433E"/>
<path d="M64.0232 5.4353L64.8513 4.95126L65.2227 7.49884C65.308 8.12724 65.116 8.5391 64.5525 8.89576L64.5226 8.87453C64.7659 8.4839 64.8044 8.10176 64.719 7.52006L64.4458 5.64334L64.0232 5.4353ZM64.1299 4.22095C64.1043 4.05111 64.2324 3.89401 64.4159 3.86853C64.5995 3.84305 64.7659 3.9577 64.7915 4.12754C64.8172 4.29737 64.6891 4.45448 64.5055 4.47995C64.322 4.50543 64.1555 4.39079 64.1299 4.22095Z" fill="#24433E"/>
<path d="M68.6418 7.77488L68.6717 7.79611C68.6333 8.00841 68.4882 8.25467 68.1509 8.29713C67.8265 8.33959 67.6003 8.16126 67.5576 7.87253C67.5235 7.62627 67.6942 7.37576 67.9717 7.12524C67.7198 7.13798 67.5363 7.02334 67.4594 6.81104H67.4296C67.2802 7.07854 67.0368 7.25263 66.6911 7.29933C66.2514 7.35877 65.9142 7.1762 65.8672 6.80255C65.8288 6.53081 65.9612 6.30153 66.1618 6.16566L67.293 6.0128L67.2332 5.58395C67.1777 5.18483 66.9856 5.04897 66.6057 5.10416C66.3453 5.13813 66.0849 5.24853 65.8288 5.46932L65.799 5.44809C66.0038 4.96829 66.4307 4.73901 66.8277 4.68381C67.3228 4.61587 67.6345 4.84516 67.7028 5.34194L67.8607 6.49684C67.8948 6.73886 68.0186 6.77708 68.168 6.75585C68.2747 6.74311 68.3558 6.70489 68.4754 6.5945L68.5052 6.61573C68.4412 6.862 68.343 6.99787 68.2107 7.0658C68.0314 7.2781 67.9204 7.49889 67.9461 7.67722C67.9802 7.91924 68.1253 7.96595 68.2961 7.94047C68.4199 7.92349 68.5181 7.87254 68.6333 7.77488H68.6418ZM67.3783 6.61573L67.3186 6.19113L66.4563 6.30577C66.3923 6.40343 66.3624 6.51382 66.3795 6.65818C66.4179 6.93417 66.6228 6.99362 66.8149 6.96815C67.0027 6.94267 67.182 6.83227 67.3741 6.61148L67.3783 6.61573Z" fill="#24433E"/>
<path d="M70.6908 6.10627L70.7207 6.1275C70.6396 6.60305 70.3322 6.82384 69.9779 6.87054C69.4913 6.92999 69.1498 6.62004 69.1029 6.22516L68.9193 4.76879L68.3174 4.84097L69.3206 3.94507L69.3761 4.39939L70.5371 4.25503L70.4048 4.58196L69.4187 4.7051L69.5767 5.95766C69.6066 6.19119 69.7005 6.46294 70.1103 6.41198C70.3109 6.38651 70.4902 6.29734 70.6951 6.10627H70.6908Z" fill="#24433E"/>
<path d="M72.0141 6.26329L72.4921 6.52229L71.1091 6.67939L71.5146 6.32273L71.1646 3.26138L70.7463 3.0406L71.5872 2.58203L72.0098 6.27178L72.0141 6.26329ZM74.1782 6.33123V6.3567C73.3245 6.55626 73.0385 6.31849 72.1507 5.24426L73.0257 4.28466L72.3769 4.04689L73.7087 3.89828L72.6543 5.08291C73.2562 5.79623 73.5507 6.11892 74.174 6.33547L74.1782 6.33123Z" fill="#24433E"/>
<path d="M74.1227 5.09559C74.0416 4.30159 74.6051 3.75386 75.3478 3.67743C76.0905 3.60101 76.7522 4.02985 76.8333 4.8196C76.9144 5.6136 76.3509 6.16133 75.6082 6.23776C74.8654 6.31418 74.2038 5.88534 74.1227 5.09134V5.09559ZM76.2527 4.99793C76.1844 4.30584 75.749 3.84727 75.2795 3.89398C74.7758 3.94493 74.6392 4.42048 74.6904 4.92575C74.763 5.61785 75.2027 6.07216 75.6765 6.02546C76.1802 5.97451 76.304 5.5032 76.2527 4.99368V4.99793Z" fill="#24433E"/>
<path d="M81.0507 3.52469L80.3037 5.91517H80.2695L79.2451 4.25924L78.5151 6.06802H78.481L77.115 3.79218L76.7522 3.58413L78.1608 3.46099L77.7425 3.80917L78.5621 5.18486L79.053 3.94503L78.7286 3.41429L79.6079 3.33786L79.4841 3.66055L80.2951 4.9853L80.7177 3.55441L80.2012 3.28691L81.4647 3.17651L81.0464 3.52044L81.0507 3.52469Z" fill="#24433E"/>
<path d="M83.9064 4.81119L83.9363 4.83242C83.7826 5.3844 83.36 5.57122 82.9843 5.60094C82.2843 5.6519 81.6739 5.15936 81.6184 4.39084C81.5586 3.57561 82.1648 3.07884 82.8307 3.03213C83.3514 2.99392 83.8295 3.24018 83.9277 3.9068L82.1008 4.03842C82.1008 4.08938 82.1007 4.14033 82.105 4.19977C82.1477 4.79421 82.502 5.19758 83.1167 5.15512C83.3386 5.13813 83.599 5.0617 83.9064 4.81544V4.81119ZM82.1178 3.85585L83.3301 3.76668C83.3088 3.44823 83.1423 3.19772 82.7667 3.2232C82.4337 3.24867 82.1947 3.47796 82.1221 3.85585H82.1178Z" fill="#24433E"/>
<path d="M90.3264 5.11255L88.9391 5.18473L89.3659 4.85354L89.2976 3.58824C89.272 3.13392 89.097 3.03627 88.7726 3.05325C88.5933 3.06174 88.3714 3.11694 88.0854 3.34198L88.1707 4.91723L88.6317 5.20171L87.2402 5.2739L87.667 4.94271L87.5987 3.67741C87.5731 3.22309 87.3981 3.12543 87.0737 3.14241C86.8944 3.15091 86.6682 3.20611 86.3865 3.43114L86.4718 5.0064L86.9328 5.29088L85.5455 5.36306L85.9724 5.03188L85.887 3.44813L85.4858 3.20186L86.3566 2.79425L86.2968 3.23158L86.3267 3.25706C86.5529 3.0023 86.8731 2.76877 87.3255 2.74329C87.6372 2.72631 87.9274 2.81972 88.0384 3.14241C88.2646 2.89615 88.5805 2.67536 89.0202 2.64989C89.4044 2.62866 89.7587 2.77726 89.7843 3.32499L89.8654 4.82382L90.3264 5.1083V5.11255Z" fill="#24433E"/>
<path d="M90.6209 3.86861C90.591 3.07037 91.1886 2.5566 91.9314 2.53112C92.6741 2.5014 93.3101 2.96846 93.34 3.7667C93.3699 4.56495 92.7723 5.07871 92.0295 5.10419C91.2825 5.13391 90.6508 4.66685 90.6166 3.86861H90.6209ZM92.7552 3.90258C92.7296 3.20624 92.3241 2.72219 91.8545 2.73918C91.3466 2.75616 91.1844 3.22322 91.2014 3.73273C91.227 4.42907 91.6411 4.91312 92.1149 4.89613C92.6186 4.8749 92.7765 4.41209 92.7552 3.90258Z" fill="#24433E"/>
<path d="M96.7976 4.71767L96.1701 4.98092L95.9865 4.5266H95.9609C95.8073 4.76437 95.4786 4.9979 95.056 5.00639C94.4883 5.01913 93.8778 4.6285 93.8608 3.80903C93.8394 2.92162 94.5352 2.44182 95.2651 2.42484C95.4188 2.42484 95.6536 2.43758 95.8542 2.48853L95.8329 1.54592L95.4359 1.28692L96.3152 0.904785L96.4006 4.45866L96.7976 4.71767ZM95.8969 4.34827L95.867 3.09146C95.8585 2.7815 95.5426 2.6244 95.2267 2.63289C94.7358 2.64563 94.3901 3.04051 94.4072 3.68165C94.42 4.27184 94.7316 4.6285 95.2182 4.61576C95.4572 4.61152 95.7091 4.51811 95.8969 4.34827Z" fill="#24433E"/>
<path d="M99.4569 4.21248L99.4868 4.23795C99.299 4.78144 98.8678 4.94278 98.4879 4.94703C97.7879 4.95552 97.2074 4.42478 97.1988 3.65625C97.1903 2.83678 97.822 2.38246 98.4922 2.37397C99.0172 2.36548 99.474 2.64147 99.5337 3.31233L97.7025 3.33356C97.6982 3.38451 97.7025 3.43546 97.7025 3.49491C97.711 4.09359 98.0397 4.51394 98.6544 4.50969C98.8764 4.50969 99.1453 4.446 99.4654 4.21672L99.4569 4.21248ZM97.7281 3.15098L98.9404 3.13825C98.9404 2.8198 98.7867 2.55655 98.4111 2.56079C98.0781 2.56079 97.822 2.77734 97.7281 3.15098Z" fill="#24433E"/>
<path d="M101.288 4.87484H99.8965L100.34 4.56913L100.328 1.4908L99.935 1.22331L100.823 0.858154L100.84 4.56489L101.288 4.8706V4.87484Z" fill="#24433E"/>
<path d="M103.896 4.21242L103.922 4.2379C103.725 4.77714 103.29 4.92999 102.91 4.92999C102.21 4.92999 101.638 4.39076 101.642 3.61799C101.642 2.79852 102.287 2.35693 102.957 2.35693C103.482 2.35693 103.935 2.64141 103.982 3.31228L102.15 3.30378C102.146 3.35474 102.146 3.40569 102.146 3.46513C102.146 4.06381 102.466 4.48841 103.081 4.49266C103.303 4.49266 103.572 4.43746 103.896 4.21242ZM102.189 3.12545H103.401C103.401 2.81125 103.26 2.548 102.88 2.548C102.547 2.548 102.291 2.75605 102.189 3.12545Z" fill="#24433E"/>
<path d="M106.445 4.61152L106.884 4.92997L105.493 4.90024L105.945 4.59878L106.013 1.52045L105.629 1.24446L106.526 0.904785L106.445 4.61152ZM108.579 4.96818V4.99365C107.704 5.07857 107.452 4.80259 106.718 3.61796L107.717 2.78575L107.106 2.46306L108.447 2.49277L107.247 3.52455C107.747 4.3143 107.994 4.67096 108.583 4.96818H108.579Z" fill="#24433E"/>
<path d="M108.698 3.73276C108.724 2.93451 109.36 2.46746 110.103 2.49293C110.85 2.51841 111.447 3.02793 111.422 3.82617C111.396 4.62441 110.76 5.09147 110.017 5.06599C109.27 5.04052 108.673 4.531 108.698 3.73276ZM110.824 3.91958C110.846 3.22324 110.483 2.71373 110.009 2.69675C109.505 2.67976 109.305 3.12983 109.287 3.63935C109.262 4.33569 109.642 4.84945 110.116 4.86219C110.624 4.87917 110.811 4.4291 110.828 3.91958H110.824Z" fill="#24433E"/>
<path d="M113.142 5.14241L111.755 5.07872L112.212 4.78999L112.348 1.71166L111.972 1.42718L112.877 1.10449L112.711 4.81122L113.142 5.13817V5.14241Z" fill="#24433E"/>
<path d="M115.789 4.61166L115.814 4.63714C115.592 5.16788 115.148 5.29951 114.773 5.27828C114.073 5.24006 113.53 4.67535 113.573 3.90259C113.616 3.08311 114.282 2.67125 114.948 2.70947C115.468 2.73919 115.908 3.04065 115.925 3.71576L114.098 3.61811C114.09 3.66906 114.085 3.72001 114.085 3.7752C114.056 4.37389 114.354 4.81547 114.969 4.84944C115.191 4.86217 115.46 4.81971 115.797 4.61166H115.789ZM114.137 3.43978L115.349 3.50346C115.366 3.18501 115.234 2.91327 114.858 2.89204C114.525 2.87506 114.256 3.07037 114.137 3.43553V3.43978Z" fill="#24433E"/>
<path d="M117.15 5.05747L117.573 5.39714L116.186 5.30374L116.651 5.0235L116.86 1.94941L116.489 1.65644L117.402 1.35498L117.15 5.05322V5.05747ZM119.267 5.50754V5.53302C118.388 5.57548 118.149 5.291 117.466 4.07665L118.499 3.2869L117.906 2.93873L119.242 3.02789L117.991 4.00022C118.456 4.8112 118.687 5.17635 119.263 5.50329L119.267 5.50754Z" fill="#24433E"/>
<path d="M121.637 5.02357L121.662 5.05329C121.423 5.57554 120.979 5.69868 120.604 5.66896C119.904 5.61376 119.378 5.02782 119.438 4.26779C119.507 3.38887 120.305 3.05768 120.911 3.10439C121.299 3.13411 121.585 3.26149 121.794 3.43133L121.41 3.8347L120.838 3.30395C120.36 3.26574 119.997 3.5672 119.95 4.16164C119.904 4.7306 120.185 5.19341 120.808 5.24011C121.03 5.2571 121.299 5.22313 121.641 5.01932L121.637 5.02357Z" fill="#24433E"/>
<path d="M122.153 3.5713L123.071 3.29106L122.84 5.85563C122.776 6.48403 122.495 6.84495 121.867 7.06149L121.841 7.03176C122.166 6.70907 122.294 6.34392 122.345 5.75797L122.512 3.86852L122.149 3.56705L122.153 3.5713ZM122.537 2.41639C122.554 2.24656 122.712 2.12342 122.896 2.13616C123.079 2.1489 123.216 2.306 123.199 2.47159C123.186 2.64143 123.024 2.76456 122.84 2.74758C122.657 2.7306 122.52 2.58198 122.537 2.41214V2.41639Z" fill="#24433E"/>
<path d="M123.685 4.63708C123.767 3.84308 124.428 3.41424 125.171 3.49067C125.914 3.56709 126.477 4.11058 126.4 4.90882C126.319 5.70282 125.658 6.13166 124.915 6.05523C124.172 5.98305 123.609 5.43532 123.685 4.63708ZM125.794 4.95977C125.862 4.26768 125.53 3.73268 125.06 3.68598C124.556 3.63503 124.326 4.07661 124.279 4.58188C124.211 5.27397 124.552 5.80896 125.022 5.85567C125.525 5.90662 125.743 5.46504 125.794 4.95977Z" fill="#24433E"/>
<path d="M129.828 6.53918L128.445 6.38208L128.923 6.12732L129.068 4.86626C129.119 4.41619 128.906 4.28032 128.586 4.24636C128.411 4.22513 128.121 4.23362 127.805 4.41195L127.621 5.97871L128.027 6.33537L126.644 6.17828L127.122 5.92351L127.305 4.34826L126.951 4.0383L127.877 3.7793L127.745 4.19965L127.771 4.22937C128.078 4.00433 128.419 3.84299 128.893 3.89394C129.273 3.9364 129.653 4.1487 129.589 4.69643L129.418 6.18676L129.824 6.54343L129.828 6.53918Z" fill="#24433E"/>
<path d="M132.487 6.20803L132.513 6.23776C132.248 6.74727 131.8 6.84917 131.424 6.79822C130.729 6.70906 130.229 6.10188 130.332 5.33761C130.438 4.52663 131.13 4.16148 131.792 4.2464C132.312 4.31433 132.726 4.64551 132.688 5.32487L130.874 5.09135C130.861 5.1423 130.857 5.19325 130.848 5.24845C130.771 5.84288 131.036 6.30569 131.651 6.38636C131.873 6.41608 132.146 6.39061 132.492 6.20803H132.487ZM130.929 4.91726L132.133 5.07012C132.176 4.75167 132.065 4.47568 131.689 4.42473C131.356 4.38227 131.079 4.56059 130.929 4.91301V4.91726Z" fill="#24433E"/>
<path d="M134.028 5.24845L133.815 6.76002L134.434 7.15914L132.837 6.9341L133.32 6.69208L133.542 5.12107L133.196 4.80262L134.127 4.56909L133.943 5.09984L133.969 5.11258C134.216 4.80262 134.656 4.59032 135.138 4.76441L134.874 5.23571C134.524 5.08286 134.216 5.12531 134.028 5.25269V5.24845Z" fill="#24433E"/>
<path d="M137.17 6.85778C137.097 7.33757 136.564 7.53289 136.082 7.45646C135.868 7.4225 135.659 7.33758 135.492 7.23992L135.134 7.30785L135.266 6.45866L135.616 7.0531C135.77 7.155 135.928 7.21869 136.082 7.24417C136.402 7.29087 136.585 7.14226 136.619 6.92996C136.718 6.29731 135.296 6.25061 135.42 5.4651C135.497 4.97681 136.06 4.84519 136.517 4.91312C136.709 4.94285 136.884 5.01078 137.038 5.0957L137.341 5.03626L137.208 5.88546L136.816 5.21459C136.722 5.16788 136.615 5.13392 136.504 5.11693C136.141 5.06174 135.958 5.22308 135.928 5.41415C135.838 5.98311 137.294 6.02982 137.166 6.84929L137.17 6.85778Z" fill="#24433E"/>
<path d="M138.472 7.46916L138.86 7.84705L137.49 7.61777L137.981 7.38848L138.493 4.35262L138.156 4.02568L139.095 3.81763L138.476 7.47341L138.472 7.46916ZM140.529 8.12729V8.15276C139.646 8.1103 139.441 7.80459 138.882 6.52231L139.992 5.84295L139.437 5.43534L140.76 5.65613L139.42 6.50108C139.799 7.35452 139.992 7.74091 140.529 8.12304V8.12729Z" fill="#24433E"/>
<path d="M142.028 8.40321L140.657 8.15694L141.153 7.93191L141.439 6.36939L141.101 6.03821L142.04 5.84289L141.644 8.02107L142.028 8.40321ZM141.588 4.92151C141.618 4.75592 141.793 4.64552 141.972 4.67525C142.151 4.70921 142.275 4.87056 142.245 5.0404C142.216 5.21024 142.041 5.31639 141.861 5.28667C141.682 5.2527 141.558 5.09135 141.588 4.92151Z" fill="#24433E"/>
<path d="M144.713 8.23335L144.734 8.26307C144.439 8.7556 143.987 8.82779 143.616 8.75561C142.928 8.62398 142.467 7.99133 142.613 7.2313C142.766 6.42881 143.483 6.10612 144.136 6.2335C144.649 6.33115 145.046 6.69206 144.965 7.36293L143.167 7.019C143.15 7.06996 143.142 7.12091 143.133 7.1761C143.018 7.76205 143.257 8.24185 143.859 8.36073C144.077 8.40319 144.35 8.39894 144.708 8.2376L144.713 8.23335ZM143.236 6.84917L144.427 7.07845C144.486 6.76425 144.397 6.47977 144.025 6.40758C143.697 6.34389 143.406 6.50524 143.24 6.84917H143.236Z" fill="#24433E"/>
<path d="M108.605 11.6133H107.076V12.127H107.546L106.116 16.3688L104.024 12.127H104.37V11.6133H101.258V12.127H101.536L100.033 16.5726L97.5873 11.6133H95.6451L93.9291 16.7H93.387V17.2137H94.9151V16.7H94.4712L95.0389 15.0185H97.1049V15.0101L97.8818 16.7H97.5873V17.2137H100.661V16.7H100.533L102.022 12.2884L104.293 17.2137H106.364L108.084 12.1313H108.592V11.6175L108.605 11.6133ZM95.2182 14.5048L95.9182 12.4285L96.8744 14.5048H95.2182Z" fill="#23423D"/>
</svg>
